<svg width="3410" height="2067" xmlns="http://www.w3.org/2000/svg" xmlns:xlink="http://www.w3.org/1999/xlink" xml:space="preserve" overflow="hidden"><defs><clipPath id="clip0"><rect x="3212" y="311" width="3410" height="2067"/></clipPath><clipPath id="clip1"><rect x="3212" y="311" width="3410" height="2067"/></clipPath></defs><g clip-path="url(#clip0)" transform="translate(-3212 -311)"><g clip-path="url(#clip1)"><rect x="3218" y="316" width="3400" height="2058" fill="#FFFFFF" fill-opacity="1"/><g><path d="M3567.5 2059.57 6550.5 2059.57M3567.5 1960.56 6550.5 1960.56M3567.5 1862.56 6550.5 1862.56M3567.5 1764.56 6550.5 1764.56M3567.5 1666.55 6550.5 1666.55M3567.5 1568.55 6550.5 1568.55M3567.5 1470.55 6550.5 1470.55M3567.5 1372.55 6550.5 1372.55M3567.5 1274.54 6550.5 1274.54M3567.5 1176.54 6550.5 1176.54M3567.5 1077.54 6550.5 1077.54M3567.5 979.532 6550.5 979.532M3567.5 881.529 6550.5 881.529M3567.5 783.526 6550.5 783.526M3567.5 685.523 6550.5 685.523M3567.5 587.5 6550.5 587.5" stroke="#D9D9D9" stroke-width="3.4375" stroke-linecap="butt" stroke-linejoin="round" stroke-miterlimit="10" stroke-opacity="1" fill="none" fill-rule="nonzero"/></g><g><path d="M3567.5 2157.5 6550.5 2157.5" stroke="#D9D9D9" stroke-width="3.4375" stroke-linecap="butt" stroke-linejoin="round" stroke-miterlimit="10" stroke-opacity="1" fill="none" fill-rule="evenodd"/></g><g><path d="M3570.5 2157.5C3572.57 2157.43 3574.64 2157.37 3576.72 2157.3 3578.79 2157.24 3580.86 2157.17 3582.93 2157.1 3585 2157.04 3587.07 2156.97 3589.15 2156.9 3591.22 2156.83 3593.29 2156.77 3595.36 2156.7 3597.43 2156.63 3599.5 2156.56 3601.58 2156.49 3603.65 2156.42 3605.72 2156.36 3607.79 2156.29 3609.86 2156.22 3611.93 2156.15 3614.01 2156.08 3616.08 2156.01 3618.15 2155.94 3620.22 2155.87 3622.29 2155.8 3624.36 2155.73 3626.44 2155.66 3628.51 2155.59 3630.58 2155.51 3632.65 2155.44 3634.72 2155.37 3636.79 2155.3 3638.87 2155.23 3640.94 2155.16 3643.01 2155.08 3645.08 2155.01 3647.15 2154.94 3649.22 2154.86 3651.3 2154.79 3653.37 2154.72 3655.44 2154.64 3657.51 2154.57 3659.58 2154.5 3661.65 2154.42 3663.73 2154.35 3665.8 2154.27 3667.87 2154.2 3669.94 2154.12 3672.01 2154.05 3674.08 2153.97 3676.16 2153.9 3678.23 2153.82 3680.3 2153.74 3682.37 2153.67 3684.44 2153.59 3686.51 2153.51 3688.59 2153.44 3690.66 2153.36 3692.73 2153.28 3694.8 2153.2 3696.87 2153.13 3698.94 2153.05 3701.02 2152.97 3703.09 2152.89 3705.16 2152.81 3707.23 2152.73 3709.3 2152.65 3711.37 2152.57 3713.45 2152.49 3715.52 2152.41 3717.59 2152.33 3719.66 2152.25 3721.73 2152.17 3723.8 2152.09 3725.88 2152.01 3727.95 2151.93 3730.02 2151.85 3732.09 2151.76 3734.16 2151.68 3736.23 2151.6 3738.31 2151.52 3740.38 2151.43 3742.45 2151.35 3744.52 2151.27 3746.59 2151.18 3748.66 2151.1 3750.74 2151.02 3752.81 2150.93 3754.88 2150.85 3756.95 2150.76 3759.02 2150.68 3761.09 2150.59 3763.17 2150.51 3765.24 2150.42 3767.31 2150.34 3769.38 2150.25 3771.45 2150.16 3773.52 2150.08 3775.6 2149.99 3777.67 2149.9 3779.74 2149.81 3781.81 2149.73 3783.88 2149.64 3785.95 2149.55 3788.03 2149.46 3790.1 2149.37 3792.17 2149.28 3794.24 2149.19 3796.31 2149.1 3798.38 2149.01 3800.46 2148.92 3802.53 2148.83 3804.6 2148.74 3806.67 2148.65 3808.74 2148.56 3810.81 2148.47 3812.89 2148.38 3814.96 2148.29 3817.03 2148.2 3819.1 2148.1 3821.17 2148.01 3823.24 2147.92 3825.32 2147.82 3827.39 2147.73 3829.46 2147.64 3831.53 2147.54 3833.6 2147.45 3835.67 2147.35 3837.75 2147.26 3839.82 2147.16 3841.89 2147.07 3843.96 2146.97 3846.03 2146.88 3848.1 2146.78 3850.18 2146.68 3852.25 2146.59 3854.32 2146.49 3856.39 2146.39 3858.46 2146.3 3860.53 2146.2 3862.61 2146.1 3864.68 2146 3866.75 2145.9 3868.82 2145.8 3870.89 2145.7 3872.96 2145.6 3875.04 2145.5 3877.11 2145.4 3879.18 2145.3 3881.25 2145.2 3883.32 2145.1 3885.4 2145 3887.47 2144.9 3889.54 2144.8 3891.61 2144.7 3893.68 2144.59 3895.75 2144.49 3897.82 2144.39 3899.9 2144.28 3901.97 2144.18 3904.04 2144.08 3906.11 2143.97 3908.18 2143.87 3910.25 2143.76 3912.33 2143.66 3914.4 2143.55 3916.47 2143.45 3918.54 2143.34 3920.61 2143.23 3922.68 2143.13 3924.76 2143.02 3926.83 2142.91 3928.9 2142.8 3930.97 2142.7 3933.04 2142.59 3935.11 2142.48 3937.19 2142.37 3939.26 2142.26 3941.33 2142.15 3943.4 2142.04 3945.47 2141.93 3947.55 2141.82 3949.62 2141.71 3951.69 2141.6 3953.76 2141.49 3955.83 2141.38 3957.9 2141.26 3959.98 2141.15 3962.05 2141.04 3964.12 2140.93 3966.19 2140.81 3968.26 2140.7 3970.33 2140.58 3972.41 2140.47 3974.48 2140.35 3976.55 2140.24 3978.62 2140.12 3980.69 2140.01 3982.76 2139.89 3984.84 2139.78 3986.91 2139.66 3988.98 2139.54 3991.05 2139.43 3993.12 2139.31 3995.19 2139.19 3997.27 2139.07 3999.34 2138.95 4001.41 2138.83 4003.48 2138.71 4005.55 2138.59 4007.62 2138.47 4009.7 2138.35 4011.77 2138.23 4013.84 2138.11 4015.91 2137.99 4017.98 2137.87 4020.05 2137.74 4022.13 2137.62 4024.2 2137.5 4026.27 2137.38 4028.34 2137.25 4030.41 2137.13 4032.48 2137 4034.56 2136.88 4036.63 2136.75 4038.7 2136.63 4040.77 2136.5 4042.84 2136.38 4044.91 2136.25 4046.99 2136.12 4049.06 2135.99 4051.13 2135.87 4053.2 2135.74 4055.27 2135.61 4057.34 2135.48 4059.42 2135.35 4061.49 2135.22 4063.56 2135.09 4065.63 2134.96 4067.7 2134.83 4069.77 2134.7 4071.85 2134.57 4073.92 2134.44 4075.99 2134.31 4078.06 2134.17 4080.13 2134.04 4082.2 2133.91 4084.28 2133.77 4086.35 2133.64 4088.42 2133.5 4090.49 2133.37 4092.56 2133.23 4094.63 2133.1 4096.71 2132.96 4098.78 2132.82 4100.85 2132.69 4102.92 2132.55 4104.99 2132.41 4107.06 2132.27 4109.14 2132.14 4111.21 2132 4113.28 2131.86 4115.35 2131.72 4117.42 2131.58 4119.49 2131.44 4121.57 2131.3 4123.64 2131.15 4125.71 2131.01 4127.78 2130.87 4129.85 2130.73 4131.92 2130.58 4134 2130.44 4136.07 2130.3 4138.14 2130.15 4140.21 2130.01 4142.28 2129.86 4144.35 2129.72 4146.43 2129.57 4148.5 2129.43 4150.57 2129.28 4152.64 2129.13 4154.71 2128.98 4156.78 2128.84 4158.86 2128.69 4160.93 2128.54 4163 2128.39 4165.07 2128.24 4167.14 2128.09 4169.21 2127.94 4171.29 2127.79 4173.36 2127.63 4175.43 2127.48 4177.5 2127.33 4179.57 2127.18 4181.64 2127.02 4183.72 2126.87 4185.79 2126.72 4187.86 2126.56 4189.93 2126.4 4192 2126.25 4194.07 2126.09 4196.15 2125.94 4198.22 2125.78 4200.29 2125.62 4202.36 2125.46 4204.43 2125.31 4206.5 2125.15 4208.58 2124.99 4210.65 2124.83 4212.72 2124.67 4214.79 2124.51 4216.86 2124.35 4218.94 2124.18 4221.01 2124.02 4223.08 2123.86 4225.15 2123.7 4227.22 2123.53 4229.29 2123.37 4231.36 2123.2 4233.44 2123.04 4235.51 2122.87 4237.58 2122.71 4239.65 2122.54 4241.72 2122.37 4243.79 2122.21 4245.87 2122.04 4247.94 2121.87 4250.01 2121.7 4252.08 2121.53 4254.15 2121.36 4256.23 2121.19 4258.3 2121.02 4260.37 2120.85 4262.44 2120.68 4264.51 2120.5 4266.58 2120.33 4268.65 2120.16 4270.73 2119.98 4272.8 2119.81 4274.87 2119.64 4276.94 2119.46 4279.01 2119.28 4281.08 2119.11 4283.16 2118.93 4285.23 2118.75 4287.3 2118.57 4289.37 2118.4 4291.44 2118.22 4293.52 2118.04 4295.59 2117.86 4297.66 2117.68 4299.73 2117.49 4301.8 2117.31 4303.87 2117.13 4305.95 2116.95 4308.02 2116.76 4310.09 2116.58 4312.16 2116.4 4314.23 2116.21 4316.3 2116.03 4318.38 2115.84 4320.45 2115.65 4322.52 2115.47 4324.59 2115.28 4326.66 2115.09 4328.73 2114.9 4330.81 2114.71 4332.88 2114.52 4334.95 2114.33 4337.02 2114.14 4339.09 2113.95 4341.16 2113.76 4343.24 2113.56 4345.31 2113.37 4347.38 2113.18 4349.45 2112.98 4351.52 2112.79 4353.59 2112.59 4355.67 2112.4 4357.74 2112.2 4359.81 2112 4361.88 2111.8 4363.95 2111.61 4366.02 2111.41 4368.1 2111.21 4370.17 2111.01 4372.24 2110.81 4374.31 2110.61 4376.38 2110.4 4378.45 2110.2 4380.53 2110 4382.6 2109.79 4384.67 2109.59 4386.74 2109.39 4388.81 2109.18 4390.88 2108.97 4392.96 2108.77 4395.03 2108.56 4397.1 2108.35 4399.17 2108.14 4401.24 2107.93 4403.31 2107.72 4405.39 2107.51 4407.46 2107.3 4409.53 2107.09 4411.6 2106.88 4413.67 2106.67 4415.74 2106.45 4417.82 2106.24 4419.89 2106.02 4421.96 2105.81 4424.03 2105.59 4426.1 2105.38 4428.17 2105.16 4430.25 2104.94 4432.32 2104.72 4434.39 2104.5 4436.46 2104.28 4438.53 2104.06 4440.6 2103.84 4442.68 2103.62 4444.75 2103.4 4446.82 2103.17 4448.89 2102.95 4450.96 2102.73 4453.03 2102.5 4455.11 2102.28 4457.18 2102.05 4459.25 2101.82 4461.32 2101.59 4463.39 2101.37 4465.46 2101.14 4467.54 2100.91 4469.61 2100.68 4471.68 2100.45 4473.75 2100.21 4475.82 2099.98 4477.89 2099.75 4479.97 2099.51 4482.04 2099.28 4484.11 2099.04 4486.18 2098.81 4488.25 2098.57 4490.32 2098.33 4492.4 2098.1 4494.47 2097.86 4496.54 2097.62 4498.61 2097.38 4500.68 2097.14 4502.75 2096.9 4504.83 2096.65 4506.9 2096.41 4508.97 2096.17 4511.04 2095.92 4513.11 2095.68 4515.18 2095.43 4517.26 2095.19 4519.33 2094.94 4521.4 2094.69 4523.47 2094.44 4525.54 2094.19 4527.61 2093.94 4529.69 2093.69 4531.76 2093.44 4533.83 2093.19 4535.9 2092.93 4537.97 2092.68 4540.04 2092.43 4542.12 2092.17 4544.19 2091.91 4546.26 2091.66 4548.33 2091.4 4550.4 2091.14 4552.47 2090.88 4554.55 2090.62 4556.62 2090.36 4558.69 2090.1 4560.76 2089.84 4562.83 2089.58 4564.9 2089.31 4566.98 2089.05 4569.05 2088.78 4571.12 2088.52 4573.19 2088.25 4575.26 2087.98 4577.33 2087.71 4579.41 2087.44 4581.48 2087.17 4583.55 2086.9 4585.62 2086.63 4587.69 2086.36 4589.77 2086.09 4591.84 2085.81 4593.91 2085.54 4595.98 2085.26 4598.05 2084.99 4600.12 2084.71 4602.2 2084.43 4604.27 2084.15 4606.34 2083.87 4608.41 2083.59 4610.48 2083.31 4612.55 2083.03 4614.63 2082.74 4616.7 2082.46 4618.77 2082.18 4620.84 2081.89 4622.91 2081.6 4624.98 2081.32 4627.06 2081.03 4629.13 2080.74 4631.2 2080.45 4633.27 2080.16 4635.34 2079.87 4637.41 2079.57 4639.49 2079.28 4641.56 2078.99 4643.63 2078.69 4645.7 2078.4 4647.77 2078.1 4649.84 2077.8 4651.92 2077.5 4653.99 2077.21 4656.06 2076.91 4658.13 2076.6 4660.2 2076.3 4662.27 2076 4664.35 2075.7 4666.42 2075.39 4668.49 2075.09 4670.56 2074.78 4672.63 2074.47 4674.7 2074.16 4676.78 2073.85 4678.85 2073.54 4680.92 2073.23 4682.99 2072.92 4685.06 2072.61 4687.13 2072.29 4689.21 2071.98 4691.28 2071.66 4693.35 2071.35 4695.42 2071.03 4697.49 2070.71 4699.56 2070.39 4701.64 2070.07 4703.71 2069.75 4705.78 2069.43 4707.85 2069.11 4709.92 2068.78 4711.99 2068.46 4714.07 2068.13 4716.14 2067.8 4718.21 2067.48 4720.28 2067.15 4722.35 2066.82 4724.42 2066.49 4726.5 2066.15 4728.57 2065.82 4730.64 2065.49 4732.71 2065.15 4734.78 2064.82 4736.85 2064.48 4738.93 2064.14 4741 2063.8 4743.07 2063.47 4745.14 2063.12 4747.21 2062.78 4749.28 2062.44 4751.36 2062.1 4753.43 2061.75 4755.5 2061.41 4757.57 2061.06 4759.64 2060.71 4761.71 2060.36 4763.79 2060.01 4765.86 2059.66 4767.93 2059.31 4770 2058.96 4772.07 2058.6 4774.14 2058.25 4776.22 2057.89 4778.29 2057.53 4780.36 2057.18 4782.43 2056.82 4784.5 2056.46 4786.57 2056.09 4788.65 2055.73 4790.72 2055.37 4792.79 2055 4794.86 2054.64 4796.93 2054.27 4799 2053.9 4801.08 2053.53 4803.15 2053.16 4805.22 2052.79 4807.29 2052.42 4809.36 2052.05 4811.43 2051.67 4813.51 2051.3 4815.58 2050.92 4817.65 2050.54 4819.72 2050.16 4821.79 2049.78 4823.86 2049.4 4825.94 2049.02 4828.01 2048.64 4830.08 2048.25 4832.15 2047.87 4834.22 2047.48 4836.29 2047.09 4838.37 2046.7 4840.44 2046.31 4842.51 2045.92 4844.58 2045.53 4846.65 2045.14 4848.72 2044.74 4850.8 2044.34 4852.87 2043.95 4854.94 2043.55 4857.01 2043.15 4859.08 2042.75 4861.15 2042.35 4863.23 2041.94 4865.3 2041.54 4867.37 2041.13 4869.44 2040.73 4871.51 2040.32 4873.58 2039.91 4875.66 2039.5 4877.73 2039.09 4879.8 2038.68 4881.87 2038.26 4883.94 2037.85 4886.01 2037.43 4888.09 2037.01 4890.16 2036.59 4892.23 2036.17 4894.3 2035.75 4896.37 2035.33 4898.44 2034.91 4900.52 2034.48 4902.59 2034.06 4904.66 2033.63 4906.73 2033.2 4908.8 2032.77 4910.88 2032.34 4912.95 2031.9 4915.02 2031.47 4917.09 2031.04 4919.16 2030.6 4921.23 2030.16 4923.3 2029.72 4925.38 2029.28 4927.45 2028.84 4929.52 2028.4 4931.59 2027.95 4933.66 2027.51 4935.73 2027.06 4937.81 2026.61 4939.88 2026.16 4941.95 2025.71 4944.02 2025.26 4946.09 2024.8 4948.17 2024.35 4950.24 2023.89 4952.31 2023.44 4954.38 2022.98 4956.45 2022.52 4958.52 2022.05 4960.6 2021.59 4962.67 2021.13 4964.74 2020.66 4966.81 2020.19 4968.88 2019.72 4970.95 2019.26 4973.03 2018.78 4975.1 2018.31 4977.17 2017.84 4979.24 2017.36 4981.31 2016.88 4983.38 2016.41 4985.46 2015.93 4987.53 2015.44 4989.6 2014.96 4991.67 2014.48 4993.74 2013.99 4995.81 2013.51 4997.89 2013.02 4999.96 2012.53 5002.03 2012.04 5004.1 2011.54 5006.17 2011.05 5008.24 2010.55 5010.31 2010.06 5012.39 2009.56 5014.46 2009.06 5016.53 2008.56 5018.6 2008.05 5020.67 2007.55 5022.75 2007.04 5024.82 2006.53 5026.89 2006.03 5028.96 2005.52 5031.03 2005 5033.1 2004.49 5035.18 2003.97 5037.25 2003.46 5039.32 2002.94 5041.39 2002.42 5043.46 2001.9 5045.53 2001.38 5047.61 2000.85 5049.68 2000.33 5051.75 1999.8 5053.82 1999.27 5055.89 1998.74 5057.96 1998.21 5060.04 1997.67 5062.11 1997.14 5064.18 1996.6 5066.25 1996.06 5068.32 1995.52 5070.39 1994.98 5072.47 1994.44 5074.54 1993.89 5076.61 1993.35 5078.68 1992.8 5080.75 1992.25 5082.82 1991.7 5084.9 1991.14 5086.97 1990.59 5089.04 1990.03 5091.11 1989.48 5093.18 1988.92 5095.25 1988.35 5097.33 1987.79 5099.4 1987.23 5101.47 1986.66 5103.54 1986.09 5105.61 1985.52 5107.68 1984.95 5109.76 1984.38 5111.83 1983.8 5113.9 1983.23 5115.97 1982.65 5118.04 1982.07 5120.11 1981.49 5122.19 1980.91 5124.26 1980.32 5126.33 1979.73 5128.4 1979.15 5130.47 1978.56 5132.54 1977.96 5134.62 1977.37 5136.69 1976.77 5138.76 1976.18 5140.83 1975.58 5142.9 1974.98 5144.97 1974.38 5147.05 1973.77 5149.12 1973.16 5151.19 1972.56 5153.26 1971.95 5155.33 1971.34 5157.4 1970.72 5159.48 1970.11 5161.55 1969.49 5163.62 1968.87 5165.69 1968.25 5167.76 1967.63 5169.83 1967 5171.91 1966.38 5173.98 1965.75 5176.05 1965.12 5178.12 1964.49 5180.19 1963.85 5182.26 1963.22 5184.34 1962.58 5186.41 1961.94 5188.48 1961.3 5190.55 1960.66 5192.62 1960.01 5194.69 1959.37 5196.77 1958.72 5198.84 1958.07 5200.91 1957.41 5202.98 1956.76 5205.05 1956.1 5207.12 1955.45 5209.2 1954.78 5211.27 1954.12 5213.34 1953.46 5215.41 1952.79 5217.48 1952.12 5219.55 1951.45 5221.63 1950.78 5223.7 1950.11 5225.77 1949.43 5227.84 1948.75 5229.91 1948.07 5231.98 1947.39 5234.06 1946.71 5236.13 1946.02 5238.2 1945.33 5240.27 1944.64 5242.34 1943.95 5244.42 1943.25 5246.49 1942.56 5248.56 1941.86 5250.63 1941.16 5252.7 1940.45 5254.77 1939.75 5256.84 1939.04 5258.92 1938.33 5260.99 1937.62 5263.06 1936.91 5265.13 1936.19 5267.2 1935.48 5269.27 1934.76 5271.35 1934.04 5273.42 1933.31 5275.49 1932.59 5277.56 1931.86 5279.63 1931.13 5281.7 1930.39 5283.78 1929.66 5285.85 1928.92 5287.92 1928.18 5289.99 1927.44 5292.06 1926.7 5294.14 1925.95 5296.21 1925.21 5298.28 1924.45 5300.35 1923.7 5302.42 1922.95 5304.49 1922.19 5306.56 1921.43 5308.64 1920.67 5310.71 1919.91 5312.78 1919.14 5314.85 1918.37 5316.92 1917.6 5319 1916.83 5321.07 1916.06 5323.14 1915.28 5325.21 1914.5 5327.28 1913.72 5329.35 1912.93 5331.43 1912.15 5333.5 1911.36 5335.57 1910.57 5337.64 1909.77 5339.71 1908.98 5341.78 1908.18 5343.86 1907.38 5345.93 1906.58 5348 1905.77 5350.07 1904.96 5352.14 1904.15 5354.21 1903.34 5356.29 1902.53 5358.36 1901.71 5360.43 1900.89 5362.5 1900.07 5364.57 1899.24 5366.64 1898.41 5368.72 1897.58 5370.79 1896.75 5372.86 1895.92 5374.93 1895.08 5377 1894.24 5379.07 1893.4 5381.15 1892.56 5383.22 1891.71 5385.29 1890.86 5387.36 1890.01 5389.43 1889.15 5391.5 1888.29 5393.58 1887.44 5395.65 1886.57 5397.72 1885.71 5399.79 1884.84 5401.86 1883.97 5403.93 1883.1 5406.01 1882.22 5408.08 1881.35 5410.15 1880.47 5412.22 1879.58 5414.29 1878.7 5416.36 1877.81 5418.44 1876.92 5420.51 1876.03 5422.58 1875.13 5424.65 1874.23 5426.72 1873.33 5428.79 1872.43 5430.87 1871.52 5432.94 1870.61 5435.01 1869.7 5437.08 1868.78 5439.15 1867.87 5441.22 1866.94 5443.3 1866.02 5445.37 1865.1 5447.44 1864.17 5449.51 1863.24 5451.58 1862.3 5453.65 1861.37 5455.73 1860.43 5457.8 1859.48 5459.87 1858.54 5461.94 1857.59 5464.01 1856.64 5466.08 1855.69 5468.16 1854.73 5470.23 1853.77 5472.3 1852.81 5474.37 1851.84 5476.44 1850.88 5478.51 1849.91 5480.59 1848.93 5482.66 1847.96 5484.73 1846.98 5486.8 1845.99 5488.87 1845.01 5490.94 1844.02 5493.02 1843.03 5495.09 1842.04 5497.16 1841.04 5499.23 1840.04 5501.3 1839.04 5503.37 1838.03 5505.45 1837.02 5507.52 1836.01 5509.59 1834.99 5511.66 1833.98 5513.73 1832.96 5515.8 1831.93 5517.88 1830.91 5519.95 1829.88 5522.02 1828.84 5524.09 1827.81 5526.16 1826.77 5528.23 1825.72 5530.31 1824.68 5532.38 1823.63 5534.45 1822.58 5536.52 1821.53 5538.59 1820.47 5540.66 1819.41 5542.74 1818.34 5544.81 1817.28 5546.88 1816.2 5548.95 1815.13 5551.02 1814.05 5553.1 1812.97 5555.17 1811.89 5557.24 1810.81 5559.31 1809.71 5561.38 1808.62 5563.45 1807.53 5565.52 1806.43 5567.6 1805.32 5569.67 1804.22 5571.74 1803.11 5573.81 1802 5575.88 1800.88 5577.96 1799.76 5580.03 1798.64 5582.1 1797.51 5584.17 1796.38 5586.24 1795.25 5588.31 1794.12 5590.38 1792.98 5592.46 1791.83 5594.53 1790.69 5596.6 1789.54 5598.67 1788.39 5600.74 1787.23 5602.81 1786.07 5604.89 1784.91 5606.96 1783.74 5609.03 1782.57 5611.1 1781.4 5613.17 1780.22 5615.25 1779.04 5617.32 1777.85 5619.39 1776.67 5621.46 1775.47 5623.53 1774.28 5625.6 1773.08 5627.68 1771.88 5629.75 1770.68 5631.82 1769.47 5633.89 1768.25 5635.96 1767.04 5638.03 1765.82 5640.11 1764.59 5642.18 1763.37 5644.25 1762.14 5646.32 1760.9 5648.39 1759.67 5650.46 1758.43 5652.54 1757.18 5654.61 1755.93 5656.68 1754.68 5658.75 1753.42 5660.82 1752.16 5662.89 1750.9 5664.97 1749.63 5667.04 1748.36 5669.11 1747.08 5671.18 1745.8 5673.25 1744.52 5675.32 1743.24 5677.4 1741.94 5679.47 1740.65 5681.54 1739.35 5683.61 1738.05 5685.68 1736.75 5687.75 1735.44 5689.83 1734.12 5691.9 1732.8 5693.97 1731.48 5696.04 1730.16 5698.11 1728.83 5700.18 1727.5 5702.26 1726.16 5704.33 1724.82 5706.4 1723.47 5708.47 1722.12 5710.54 1720.77 5712.61 1719.41 5714.69 1718.05 5716.76 1716.69 5718.83 1715.32 5720.9 1713.94 5722.97 1712.57 5725.04 1711.18 5727.12 1709.8 5729.19 1708.41 5731.26 1707.02 5733.33 1705.62 5735.4 1704.22 5737.47 1702.81 5739.55 1701.4 5741.62 1699.98 5743.69 1698.56 5745.76 1697.14 5747.83 1695.71 5749.9 1694.28 5751.98 1692.84 5754.05 1691.41 5756.12 1689.96 5758.19 1688.51 5760.26 1687.06 5762.33 1685.6 5764.41 1684.14 5766.48 1682.68 5768.55 1681.21 5770.62 1679.73 5772.69 1678.25 5774.76 1676.77 5776.84 1675.28 5778.91 1673.79 5780.98 1672.29 5783.05 1670.79 5785.12 1669.28 5787.19 1667.77 5789.27 1666.26 5791.34 1664.74 5793.41 1663.22 5795.48 1661.69 5797.55 1660.16 5799.62 1658.62 5801.7 1657.07 5803.77 1655.53 5805.84 1653.98 5807.91 1652.42 5809.98 1650.86 5812.05 1649.3 5814.13 1647.73 5816.2 1646.15 5818.27 1644.58 5820.34 1642.99 5822.41 1641.4 5824.48 1639.81 5826.56 1638.21 5828.63 1636.61 5830.7 1635 5832.77 1633.39 5834.84 1631.77 5836.91 1630.15 5838.99 1628.52 5841.06 1626.89 5843.13 1625.26 5845.2 1623.62 5847.27 1621.97 5849.34 1620.32 5851.42 1618.66 5853.49 1617 5855.56 1615.34 5857.63 1613.67 5859.7 1611.99 5861.77 1610.31 5863.85 1608.62 5865.92 1606.94 5867.99 1605.24 5870.06 1603.54 5872.13 1601.83 5874.2 1600.12 5876.28 1598.41 5878.35 1596.69 5880.42 1594.96 5882.49 1593.23 5884.56 1591.49 5886.63 1589.75 5888.71 1588 5890.78 1586.25 5892.85 1584.5 5894.92 1582.73 5896.99 1580.97 5899.06 1579.2 5901.14 1577.41 5903.21 1575.63 5905.28 1573.85 5907.35 1572.05 5909.42 1570.25 5911.49 1568.45 5913.57 1566.64 5915.64 1564.82 5917.71 1563 5919.78 1561.17 5921.85 1559.34 5923.92 1557.51 5926 1555.66 5928.07 1553.82 5930.14 1551.96 5932.21 1550.1 5934.28 1548.24 5936.35 1546.37 5938.43 1544.49 5940.5 1542.61 5942.57 1540.73 5944.64 1538.83 5946.71 1536.94 5948.79 1535.03 5950.86 1533.12 5952.93 1531.21 5955 1529.29 5957.07 1527.36 5959.14 1525.43 5961.21 1523.49 5963.29 1521.55 5965.36 1519.6 5967.43 1517.64 5969.5 1515.68 5971.57 1513.72 5973.65 1511.74 5975.72 1509.76 5977.79 1507.78 5979.86 1505.79 5981.93 1503.79 5984 1501.79 5986.08 1499.78 5988.15 1497.77 5990.22 1495.75 5992.29 1493.72 5994.36 1491.69 5996.43 1489.65 5998.51 1487.61 6000.58 1485.56 6002.65 1483.5 6004.72 1481.44 6006.79 1479.37 6008.86 1477.3 6010.94 1475.21 6013.01 1473.12 6015.08 1471.03 6017.15 1468.93 6019.22 1466.83 6021.29 1464.72 6023.37 1462.6 6025.44 1460.47 6027.51 1458.34 6029.58 1456.21 6031.65 1454.06 6033.72 1451.91 6035.8 1449.75 6037.87 1447.59 6039.94 1445.42 6042.01 1443.25 6044.08 1441.06 6046.15 1438.88 6048.23 1436.68 6050.3 1434.48 6052.37 1432.27 6054.44 1430.06 6056.51 1427.83 6058.58 1425.61 6060.66 1423.37 6062.73 1421.13 6064.8 1418.88 6066.87 1416.63 6068.94 1414.36 6071.01 1412.1 6073.09 1409.82 6075.16 1407.54 6077.23 1405.25 6079.3 1402.96 6081.37 1400.65 6083.44 1398.35 6085.52 1396.03 6087.59 1393.71 6089.66 1391.38 6091.73 1389.04 6093.8 1386.7 6095.87 1384.35 6097.95 1381.99 6100.02 1379.62 6102.09 1377.26 6104.16 1374.88 6106.23 1372.49 6108.3 1370.1 6110.38 1367.7 6112.45 1365.29 6114.52 1362.88 6116.59 1360.46 6118.66 1358.02 6120.73 1355.59 6122.81 1353.15 6124.88 1350.7 6126.95 1348.24 6129.02 1345.78 6131.09 1343.3 6133.16 1340.82 6135.24 1338.34 6137.31 1335.84 6139.38 1333.34 6141.45 1330.83 6143.52 1328.31 6145.59 1325.79 6147.67 1323.26 6149.74 1320.72 6151.81 1318.17 6153.88 1315.62 6155.95 1313.06 6158.02 1310.49 6160.1 1307.91 6162.17 1305.32 6164.24 1302.73 6166.31 1300.13 6168.38 1297.52 6170.45 1294.91 6172.53 1292.29 6174.6 1289.65 6176.67 1287.02 6178.74 1284.37 6180.81 1281.71 6182.88 1279.05 6184.96 1276.38 6187.03 1273.7 6189.1 1271.02 6191.17 1268.32 6193.24 1265.62 6195.31 1262.91 6197.39 1260.19 6199.46 1257.46 6201.53 1254.73 6203.6 1251.99 6205.67 1249.23 6207.74 1246.48 6209.82 1243.71 6211.89 1240.93 6213.96 1238.15 6216.03 1235.36 6218.1 1232.55 6220.17 1229.75 6222.25 1226.93 6224.32 1224.1 6226.39 1221.27 6228.46 1218.43 6230.53 1215.57 6232.6 1212.72 6234.68 1209.85 6236.75 1206.97 6238.82 1204.09 6240.89 1201.19 6242.96 1198.29 6245.03 1195.38 6247.11 1192.46 6249.18 1189.53 6251.25 1186.59 6253.32 1183.65 6255.39 1180.69 6257.46 1177.73 6259.54 1174.76 6261.61 1171.77 6263.68 1168.79 6265.75 1165.79 6267.82 1162.78 6269.9 1159.77 6271.97 1156.74 6274.04 1153.7 6276.11 1150.66 6278.18 1147.61 6280.25 1144.54 6282.33 1141.48 6284.4 1138.4 6286.47 1135.3 6288.54 1132.21 6290.61 1129.1 6292.68 1125.98 6294.76 1122.86 6296.83 1119.72 6298.9 1116.57 6300.97 1113.42 6303.04 1110.26 6305.11 1107.08 6307.19 1103.91 6309.26 1100.71 6311.33 1097.51 6313.4 1094.3 6315.47 1091.08 6317.54 1087.85 6319.62 1084.61 6321.69 1081.36 6323.76 1078.1 6325.83 1074.84 6327.9 1071.56 6329.97 1068.27 6332.04 1064.97 6334.12 1061.67 6336.19 1058.34 6338.26 1055.02 6340.33 1051.68 6342.4 1048.33 6344.48 1044.98 6346.55 1041.61 6348.62 1038.23 6350.69 1034.85 6352.76 1031.45 6354.83 1028.04 6356.91 1024.63 6358.98 1021.2 6361.05 1017.76 6363.12 1014.31 6365.19 1010.85 6367.26 1007.38 6369.34 1003.91 6371.41 1000.42 6373.48 996.912 6375.55 993.407 6377.62 989.887 6379.69 986.351 6381.77 982.814 6383.84 979.262 6385.91 975.694 6387.98 972.126 6390.05 968.542 6392.12 964.942 6394.2 961.342 6396.27 957.727 6398.34 954.094 6400.41 950.462 6402.48 946.814 6404.55 943.15 6406.63 939.485 6408.7 935.804 6410.77 932.107 6412.84 928.409 6414.91 924.695 6416.98 920.964 6419.06 917.234 6421.13 913.487 6423.2 909.723 6425.27 905.958 6427.34 902.178 6429.41 898.38 6431.49 894.583 6433.56 890.768 6435.63 886.936 6437.7 883.105 6439.77 879.256 6441.84 875.39 6443.92 871.524 6445.99 867.64 6448.06 863.74 6450.13 859.839 6452.2 855.921 6454.27 851.986 6456.35 848.05 6458.42 844.098 6460.49 840.127 6462.56 836.156 6464.63 832.167 6466.7 828.161 6468.78 824.155 6470.85 820.13 6472.92 816.088 6474.99 812.046 6477.06 807.986 6479.13 803.907 6481.21 799.829 6483.28 795.732 6485.35 791.618 6487.42 787.503 6489.49 783.369 6491.56 779.218 6493.64 775.066 6495.71 770.895 6497.78 766.707 6499.85 762.518 6501.92 758.31 6503.99 754.084 6506.07 749.857 6508.14 745.612 6510.21 741.348 6512.28 737.083 6514.35 732.8 6516.42 728.498 6518.5 724.195 6520.57 719.874 6522.64 715.532 6524.71 711.191 6526.78 706.831 6528.85 702.451 6530.93 698.071 6533 693.672 6535.07 689.253 6537.14 684.833 6539.21 680.395 6541.28 675.936 6543.36 671.477 6545.43 666.979 6547.5 662.5" stroke="#215F9A" stroke-width="9.16667" stroke-linecap="round" stroke-linejoin="round" stroke-miterlimit="10" stroke-opacity="1" fill="none" fill-rule="nonzero"/></g><g><text fill="#000000" fill-opacity="1" font-family="Aptos Narrow,Aptos Narrow_MSFontService,sans-serif" font-style="normal" font-variant="normal" font-weight="400" font-stretch="semi-condensed" font-size="46" text-anchor="start" direction="ltr" writing-mode="lr-tb" unicode-bidi="normal" text-decoration="none" transform="matrix(1 0 0 1 3502.24 2169)">0</text></g><g><text fill="#000000" fill-opacity="1" font-family="Aptos Narrow,Aptos Narrow_MSFontService,sans-serif" font-style="normal" font-variant="normal" font-weight="400" font-stretch="semi-condensed" font-size="46" text-anchor="start" direction="ltr" writing-mode="lr-tb" unicode-bidi="normal" text-decoration="none" transform="matrix(1 0 0 1 3376.89 2071)">100</text></g><g><text fill="#000000" fill-opacity="1" font-family="Arial,Arial_MSFontService,sans-serif" font-style="normal" font-variant="normal" font-weight="400" font-stretch="normal" font-size="46" text-anchor="start" direction="ltr" writing-mode="lr-tb" unicode-bidi="normal" text-decoration="none" transform="matrix(1 0 0 1 3446.6 2071)"> </text></g><g><text fill="#000000" fill-opacity="1" font-family="Aptos Narrow,Aptos Narrow_MSFontService,sans-serif" font-style="normal" font-variant="normal" font-weight="400" font-stretch="semi-condensed" font-size="46" text-anchor="start" direction="ltr" writing-mode="lr-tb" unicode-bidi="normal" text-decoration="none" transform="matrix(1 0 0 1 3455.76 2071)">000</text></g><g><text fill="#000000" fill-opacity="1" font-family="Aptos Narrow,Aptos Narrow_MSFontService,sans-serif" font-style="normal" font-variant="normal" font-weight="400" font-stretch="semi-condensed" font-size="46" text-anchor="start" direction="ltr" writing-mode="lr-tb" unicode-bidi="normal" text-decoration="none" transform="matrix(1 0 0 1 3376.89 1973)">200</text></g><g><text fill="#000000" fill-opacity="1" font-family="Arial,Arial_MSFontService,sans-serif" font-style="normal" font-variant="normal" font-weight="400" font-stretch="normal" font-size="46" text-anchor="start" direction="ltr" writing-mode="lr-tb" unicode-bidi="normal" text-decoration="none" transform="matrix(1 0 0 1 3446.6 1973)"> </text></g><g><text fill="#000000" fill-opacity="1" font-family="Aptos Narrow,Aptos Narrow_MSFontService,sans-serif" font-style="normal" font-variant="normal" font-weight="400" font-stretch="semi-condensed" font-size="46" text-anchor="start" direction="ltr" writing-mode="lr-tb" unicode-bidi="normal" text-decoration="none" transform="matrix(1 0 0 1 3455.76 1973)">000</text></g><g><text fill="#000000" fill-opacity="1" font-family="Aptos Narrow,Aptos Narrow_MSFontService,sans-serif" font-style="normal" font-variant="normal" font-weight="400" font-stretch="semi-condensed" font-size="46" text-anchor="start" direction="ltr" writing-mode="lr-tb" unicode-bidi="normal" text-decoration="none" transform="matrix(1 0 0 1 3376.89 1875)">300</text></g><g><text fill="#000000" fill-opacity="1" font-family="Arial,Arial_MSFontService,sans-serif" font-style="normal" font-variant="normal" font-weight="400" font-stretch="normal" font-size="46" text-anchor="start" direction="ltr" writing-mode="lr-tb" unicode-bidi="normal" text-decoration="none" transform="matrix(1 0 0 1 3446.6 1875)"> </text></g><g><text fill="#000000" fill-opacity="1" font-family="Aptos Narrow,Aptos Narrow_MSFontService,sans-serif" font-style="normal" font-variant="normal" font-weight="400" font-stretch="semi-condensed" font-size="46" text-anchor="start" direction="ltr" writing-mode="lr-tb" unicode-bidi="normal" text-decoration="none" transform="matrix(1 0 0 1 3455.76 1875)">000</text></g><g><text fill="#000000" fill-opacity="1" font-family="Aptos Narrow,Aptos Narrow_MSFontService,sans-serif" font-style="normal" font-variant="normal" font-weight="400" font-stretch="semi-condensed" font-size="46" text-anchor="start" direction="ltr" writing-mode="lr-tb" unicode-bidi="normal" text-decoration="none" transform="matrix(1 0 0 1 3376.89 1777)">400</text></g><g><text fill="#000000" fill-opacity="1" font-family="Arial,Arial_MSFontService,sans-serif" font-style="normal" font-variant="normal" font-weight="400" font-stretch="normal" font-size="46" text-anchor="start" direction="ltr" writing-mode="lr-tb" unicode-bidi="normal" text-decoration="none" transform="matrix(1 0 0 1 3446.6 1777)"> </text></g><g><text fill="#000000" fill-opacity="1" font-family="Aptos Narrow,Aptos Narrow_MSFontService,sans-serif" font-style="normal" font-variant="normal" font-weight="400" font-stretch="semi-condensed" font-size="46" text-anchor="start" direction="ltr" writing-mode="lr-tb" unicode-bidi="normal" text-decoration="none" transform="matrix(1 0 0 1 3455.76 1777)">000</text></g><g><text fill="#000000" fill-opacity="1" font-family="Aptos Narrow,Aptos Narrow_MSFontService,sans-serif" font-style="normal" font-variant="normal" font-weight="400" font-stretch="semi-condensed" font-size="46" text-anchor="start" direction="ltr" writing-mode="lr-tb" unicode-bidi="normal" text-decoration="none" transform="matrix(1 0 0 1 3376.89 1678)">500</text></g><g><text fill="#000000" fill-opacity="1" font-family="Arial,Arial_MSFontService,sans-serif" font-style="normal" font-variant="normal" font-weight="400" font-stretch="normal" font-size="46" text-anchor="start" direction="ltr" writing-mode="lr-tb" unicode-bidi="normal" text-decoration="none" transform="matrix(1 0 0 1 3446.6 1678)"> </text></g><g><text fill="#000000" fill-opacity="1" font-family="Aptos Narrow,Aptos Narrow_MSFontService,sans-serif" font-style="normal" font-variant="normal" font-weight="400" font-stretch="semi-condensed" font-size="46" text-anchor="start" direction="ltr" writing-mode="lr-tb" unicode-bidi="normal" text-decoration="none" transform="matrix(1 0 0 1 3455.76 1678)">000</text></g><g><text fill="#000000" fill-opacity="1" font-family="Aptos Narrow,Aptos Narrow_MSFontService,sans-serif" font-style="normal" font-variant="normal" font-weight="400" font-stretch="semi-condensed" font-size="46" text-anchor="start" direction="ltr" writing-mode="lr-tb" unicode-bidi="normal" text-decoration="none" transform="matrix(1 0 0 1 3376.89 1580)">600</text></g><g><text fill="#000000" fill-opacity="1" font-family="Arial,Arial_MSFontService,sans-serif" font-style="normal" font-variant="normal" font-weight="400" font-stretch="normal" font-size="46" text-anchor="start" direction="ltr" writing-mode="lr-tb" unicode-bidi="normal" text-decoration="none" transform="matrix(1 0 0 1 3446.6 1580)"> </text></g><g><text fill="#000000" fill-opacity="1" font-family="Aptos Narrow,Aptos Narrow_MSFontService,sans-serif" font-style="normal" font-variant="normal" font-weight="400" font-stretch="semi-condensed" font-size="46" text-anchor="start" direction="ltr" writing-mode="lr-tb" unicode-bidi="normal" text-decoration="none" transform="matrix(1 0 0 1 3455.76 1580)">000</text></g><g><text fill="#000000" fill-opacity="1" font-family="Aptos Narrow,Aptos Narrow_MSFontService,sans-serif" font-style="normal" font-variant="normal" font-weight="400" font-stretch="semi-condensed" font-size="46" text-anchor="start" direction="ltr" writing-mode="lr-tb" unicode-bidi="normal" text-decoration="none" transform="matrix(1 0 0 1 3376.89 1482)">700</text></g><g><text fill="#000000" fill-opacity="1" font-family="Arial,Arial_MSFontService,sans-serif" font-style="normal" font-variant="normal" font-weight="400" font-stretch="normal" font-size="46" text-anchor="start" direction="ltr" writing-mode="lr-tb" unicode-bidi="normal" text-decoration="none" transform="matrix(1 0 0 1 3446.6 1482)"> </text></g><g><text fill="#000000" fill-opacity="1" font-family="Aptos Narrow,Aptos Narrow_MSFontService,sans-serif" font-style="normal" font-variant="normal" font-weight="400" font-stretch="semi-condensed" font-size="46" text-anchor="start" direction="ltr" writing-mode="lr-tb" unicode-bidi="normal" text-decoration="none" transform="matrix(1 0 0 1 3455.76 1482)">000</text></g><g><text fill="#000000" fill-opacity="1" font-family="Aptos Narrow,Aptos Narrow_MSFontService,sans-serif" font-style="normal" font-variant="normal" font-weight="400" font-stretch="semi-condensed" font-size="46" text-anchor="start" direction="ltr" writing-mode="lr-tb" unicode-bidi="normal" text-decoration="none" transform="matrix(1 0 0 1 3376.89 1384)">800</text></g><g><text fill="#000000" fill-opacity="1" font-family="Arial,Arial_MSFontService,sans-serif" font-style="normal" font-variant="normal" font-weight="400" font-stretch="normal" font-size="46" text-anchor="start" direction="ltr" writing-mode="lr-tb" unicode-bidi="normal" text-decoration="none" transform="matrix(1 0 0 1 3446.6 1384)"> </text></g><g><text fill="#000000" fill-opacity="1" font-family="Aptos Narrow,Aptos Narrow_MSFontService,sans-serif" font-style="normal" font-variant="normal" font-weight="400" font-stretch="semi-condensed" font-size="46" text-anchor="start" direction="ltr" writing-mode="lr-tb" unicode-bidi="normal" text-decoration="none" transform="matrix(1 0 0 1 3455.76 1384)">000</text></g><g><text fill="#000000" fill-opacity="1" font-family="Aptos Narrow,Aptos Narrow_MSFontService,sans-serif" font-style="normal" font-variant="normal" font-weight="400" font-stretch="semi-condensed" font-size="46" text-anchor="start" direction="ltr" writing-mode="lr-tb" unicode-bidi="normal" text-decoration="none" transform="matrix(1 0 0 1 3376.89 1286)">900</text></g><g><text fill="#000000" fill-opacity="1" font-family="Arial,Arial_MSFontService,sans-serif" font-style="normal" font-variant="normal" font-weight="400" font-stretch="normal" font-size="46" text-anchor="start" direction="ltr" writing-mode="lr-tb" unicode-bidi="normal" text-decoration="none" transform="matrix(1 0 0 1 3446.6 1286)"> </text></g><g><text fill="#000000" fill-opacity="1" font-family="Aptos Narrow,Aptos Narrow_MSFontService,sans-serif" font-style="normal" font-variant="normal" font-weight="400" font-stretch="semi-condensed" font-size="46" text-anchor="start" direction="ltr" writing-mode="lr-tb" unicode-bidi="normal" text-decoration="none" transform="matrix(1 0 0 1 3455.76 1286)">000</text></g><g><text fill="#000000" fill-opacity="1" font-family="Aptos Narrow,Aptos Narrow_MSFontService,sans-serif" font-style="normal" font-variant="normal" font-weight="400" font-stretch="semi-condensed" font-size="46" text-anchor="start" direction="ltr" writing-mode="lr-tb" unicode-bidi="normal" text-decoration="none" transform="matrix(1 0 0 1 3344.48 1188)">1</text></g><g><text fill="#000000" fill-opacity="1" font-family="Arial,Arial_MSFontService,sans-serif" font-style="normal" font-variant="normal" font-weight="400" font-stretch="normal" font-size="46" text-anchor="start" direction="ltr" writing-mode="lr-tb" unicode-bidi="normal" text-decoration="none" transform="matrix(1 0 0 1 3367.72 1188)"> </text></g><g><text fill="#000000" fill-opacity="1" font-family="Aptos Narrow,Aptos Narrow_MSFontService,sans-serif" font-style="normal" font-variant="normal" font-weight="400" font-stretch="semi-condensed" font-size="46" text-anchor="start" direction="ltr" writing-mode="lr-tb" unicode-bidi="normal" text-decoration="none" transform="matrix(1 0 0 1 3376.89 1188)">000</text></g><g><text fill="#000000" fill-opacity="1" font-family="Arial,Arial_MSFontService,sans-serif" font-style="normal" font-variant="normal" font-weight="400" font-stretch="normal" font-size="46" text-anchor="start" direction="ltr" writing-mode="lr-tb" unicode-bidi="normal" text-decoration="none" transform="matrix(1 0 0 1 3446.6 1188)"> </text></g><g><text fill="#000000" fill-opacity="1" font-family="Aptos Narrow,Aptos Narrow_MSFontService,sans-serif" font-style="normal" font-variant="normal" font-weight="400" font-stretch="semi-condensed" font-size="46" text-anchor="start" direction="ltr" writing-mode="lr-tb" unicode-bidi="normal" text-decoration="none" transform="matrix(1 0 0 1 3455.76 1188)">000</text></g><g><text fill="#000000" fill-opacity="1" font-family="Aptos Narrow,Aptos Narrow_MSFontService,sans-serif" font-style="normal" font-variant="normal" font-weight="400" font-stretch="semi-condensed" font-size="46" text-anchor="start" direction="ltr" writing-mode="lr-tb" unicode-bidi="normal" text-decoration="none" transform="matrix(1 0 0 1 3344.48 1090)">1</text></g><g><text fill="#000000" fill-opacity="1" font-family="Arial,Arial_MSFontService,sans-serif" font-style="normal" font-variant="normal" font-weight="400" font-stretch="normal" font-size="46" text-anchor="start" direction="ltr" writing-mode="lr-tb" unicode-bidi="normal" text-decoration="none" transform="matrix(1 0 0 1 3367.72 1090)"> </text></g><g><text fill="#000000" fill-opacity="1" font-family="Aptos Narrow,Aptos Narrow_MSFontService,sans-serif" font-style="normal" font-variant="normal" font-weight="400" font-stretch="semi-condensed" font-size="46" text-anchor="start" direction="ltr" writing-mode="lr-tb" unicode-bidi="normal" text-decoration="none" transform="matrix(1 0 0 1 3376.89 1090)">100</text></g><g><text fill="#000000" fill-opacity="1" font-family="Arial,Arial_MSFontService,sans-serif" font-style="normal" font-variant="normal" font-weight="400" font-stretch="normal" font-size="46" text-anchor="start" direction="ltr" writing-mode="lr-tb" unicode-bidi="normal" text-decoration="none" transform="matrix(1 0 0 1 3446.6 1090)"> </text></g><g><text fill="#000000" fill-opacity="1" font-family="Aptos Narrow,Aptos Narrow_MSFontService,sans-serif" font-style="normal" font-variant="normal" font-weight="400" font-stretch="semi-condensed" font-size="46" text-anchor="start" direction="ltr" writing-mode="lr-tb" unicode-bidi="normal" text-decoration="none" transform="matrix(1 0 0 1 3455.76 1090)">000</text></g><g><text fill="#000000" fill-opacity="1" font-family="Aptos Narrow,Aptos Narrow_MSFontService,sans-serif" font-style="normal" font-variant="normal" font-weight="400" font-stretch="semi-condensed" font-size="46" text-anchor="start" direction="ltr" writing-mode="lr-tb" unicode-bidi="normal" text-decoration="none" transform="matrix(1 0 0 1 3344.48 992)">1</text></g><g><text fill="#000000" fill-opacity="1" font-family="Arial,Arial_MSFontService,sans-serif" font-style="normal" font-variant="normal" font-weight="400" font-stretch="normal" font-size="46" text-anchor="start" direction="ltr" writing-mode="lr-tb" unicode-bidi="normal" text-decoration="none" transform="matrix(1 0 0 1 3367.72 992)"> </text></g><g><text fill="#000000" fill-opacity="1" font-family="Aptos Narrow,Aptos Narrow_MSFontService,sans-serif" font-style="normal" font-variant="normal" font-weight="400" font-stretch="semi-condensed" font-size="46" text-anchor="start" direction="ltr" writing-mode="lr-tb" unicode-bidi="normal" text-decoration="none" transform="matrix(1 0 0 1 3376.89 992)">200</text></g><g><text fill="#000000" fill-opacity="1" font-family="Arial,Arial_MSFontService,sans-serif" font-style="normal" font-variant="normal" font-weight="400" font-stretch="normal" font-size="46" text-anchor="start" direction="ltr" writing-mode="lr-tb" unicode-bidi="normal" text-decoration="none" transform="matrix(1 0 0 1 3446.6 992)"> </text></g><g><text fill="#000000" fill-opacity="1" font-family="Aptos Narrow,Aptos Narrow_MSFontService,sans-serif" font-style="normal" font-variant="normal" font-weight="400" font-stretch="semi-condensed" font-size="46" text-anchor="start" direction="ltr" writing-mode="lr-tb" unicode-bidi="normal" text-decoration="none" transform="matrix(1 0 0 1 3455.76 992)">000</text></g><g><text fill="#000000" fill-opacity="1" font-family="Aptos Narrow,Aptos Narrow_MSFontService,sans-serif" font-style="normal" font-variant="normal" font-weight="400" font-stretch="semi-condensed" font-size="46" text-anchor="start" direction="ltr" writing-mode="lr-tb" unicode-bidi="normal" text-decoration="none" transform="matrix(1 0 0 1 3344.48 894)">1</text></g><g><text fill="#000000" fill-opacity="1" font-family="Arial,Arial_MSFontService,sans-serif" font-style="normal" font-variant="normal" font-weight="400" font-stretch="normal" font-size="46" text-anchor="start" direction="ltr" writing-mode="lr-tb" unicode-bidi="normal" text-decoration="none" transform="matrix(1 0 0 1 3367.72 894)"> </text></g><g><text fill="#000000" fill-opacity="1" font-family="Aptos Narrow,Aptos Narrow_MSFontService,sans-serif" font-style="normal" font-variant="normal" font-weight="400" font-stretch="semi-condensed" font-size="46" text-anchor="start" direction="ltr" writing-mode="lr-tb" unicode-bidi="normal" text-decoration="none" transform="matrix(1 0 0 1 3376.89 894)">300</text></g><g><text fill="#000000" fill-opacity="1" font-family="Arial,Arial_MSFontService,sans-serif" font-style="normal" font-variant="normal" font-weight="400" font-stretch="normal" font-size="46" text-anchor="start" direction="ltr" writing-mode="lr-tb" unicode-bidi="normal" text-decoration="none" transform="matrix(1 0 0 1 3446.6 894)"> </text></g><g><text fill="#000000" fill-opacity="1" font-family="Aptos Narrow,Aptos Narrow_MSFontService,sans-serif" font-style="normal" font-variant="normal" font-weight="400" font-stretch="semi-condensed" font-size="46" text-anchor="start" direction="ltr" writing-mode="lr-tb" unicode-bidi="normal" text-decoration="none" transform="matrix(1 0 0 1 3455.76 894)">000</text></g><g><text fill="#000000" fill-opacity="1" font-family="Aptos Narrow,Aptos Narrow_MSFontService,sans-serif" font-style="normal" font-variant="normal" font-weight="400" font-stretch="semi-condensed" font-size="46" text-anchor="start" direction="ltr" writing-mode="lr-tb" unicode-bidi="normal" text-decoration="none" transform="matrix(1 0 0 1 3344.48 795)">1</text></g><g><text fill="#000000" fill-opacity="1" font-family="Arial,Arial_MSFontService,sans-serif" font-style="normal" font-variant="normal" font-weight="400" font-stretch="normal" font-size="46" text-anchor="start" direction="ltr" writing-mode="lr-tb" unicode-bidi="normal" text-decoration="none" transform="matrix(1 0 0 1 3367.72 795)"> </text></g><g><text fill="#000000" fill-opacity="1" font-family="Aptos Narrow,Aptos Narrow_MSFontService,sans-serif" font-style="normal" font-variant="normal" font-weight="400" font-stretch="semi-condensed" font-size="46" text-anchor="start" direction="ltr" writing-mode="lr-tb" unicode-bidi="normal" text-decoration="none" transform="matrix(1 0 0 1 3376.89 795)">400</text></g><g><text fill="#000000" fill-opacity="1" font-family="Arial,Arial_MSFontService,sans-serif" font-style="normal" font-variant="normal" font-weight="400" font-stretch="normal" font-size="46" text-anchor="start" direction="ltr" writing-mode="lr-tb" unicode-bidi="normal" text-decoration="none" transform="matrix(1 0 0 1 3446.6 795)"> </text></g><g><text fill="#000000" fill-opacity="1" font-family="Aptos Narrow,Aptos Narrow_MSFontService,sans-serif" font-style="normal" font-variant="normal" font-weight="400" font-stretch="semi-condensed" font-size="46" text-anchor="start" direction="ltr" writing-mode="lr-tb" unicode-bidi="normal" text-decoration="none" transform="matrix(1 0 0 1 3455.76 795)">000</text></g><g><text fill="#000000" fill-opacity="1" font-family="Aptos Narrow,Aptos Narrow_MSFontService,sans-serif" font-style="normal" font-variant="normal" font-weight="400" font-stretch="semi-condensed" font-size="46" text-anchor="start" direction="ltr" writing-mode="lr-tb" unicode-bidi="normal" text-decoration="none" transform="matrix(1 0 0 1 3344.48 697)">1</text></g><g><text fill="#000000" fill-opacity="1" font-family="Arial,Arial_MSFontService,sans-serif" font-style="normal" font-variant="normal" font-weight="400" font-stretch="normal" font-size="46" text-anchor="start" direction="ltr" writing-mode="lr-tb" unicode-bidi="normal" text-decoration="none" transform="matrix(1 0 0 1 3367.72 697)"> </text></g><g><text fill="#000000" fill-opacity="1" font-family="Aptos Narrow,Aptos Narrow_MSFontService,sans-serif" font-style="normal" font-variant="normal" font-weight="400" font-stretch="semi-condensed" font-size="46" text-anchor="start" direction="ltr" writing-mode="lr-tb" unicode-bidi="normal" text-decoration="none" transform="matrix(1 0 0 1 3376.89 697)">500</text></g><g><text fill="#000000" fill-opacity="1" font-family="Arial,Arial_MSFontService,sans-serif" font-style="normal" font-variant="normal" font-weight="400" font-stretch="normal" font-size="46" text-anchor="start" direction="ltr" writing-mode="lr-tb" unicode-bidi="normal" text-decoration="none" transform="matrix(1 0 0 1 3446.6 697)"> </text></g><g><text fill="#000000" fill-opacity="1" font-family="Aptos Narrow,Aptos Narrow_MSFontService,sans-serif" font-style="normal" font-variant="normal" font-weight="400" font-stretch="semi-condensed" font-size="46" text-anchor="start" direction="ltr" writing-mode="lr-tb" unicode-bidi="normal" text-decoration="none" transform="matrix(1 0 0 1 3455.76 697)">000</text></g><g><text fill="#000000" fill-opacity="1" font-family="Aptos Narrow,Aptos Narrow_MSFontService,sans-serif" font-style="normal" font-variant="normal" font-weight="400" font-stretch="semi-condensed" font-size="46" text-anchor="start" direction="ltr" writing-mode="lr-tb" unicode-bidi="normal" text-decoration="none" transform="matrix(1 0 0 1 3344.48 599)">1</text></g><g><text fill="#000000" fill-opacity="1" font-family="Arial,Arial_MSFontService,sans-serif" font-style="normal" font-variant="normal" font-weight="400" font-stretch="normal" font-size="46" text-anchor="start" direction="ltr" writing-mode="lr-tb" unicode-bidi="normal" text-decoration="none" transform="matrix(1 0 0 1 3367.72 599)"> </text></g><g><text fill="#000000" fill-opacity="1" font-family="Aptos Narrow,Aptos Narrow_MSFontService,sans-serif" font-style="normal" font-variant="normal" font-weight="400" font-stretch="semi-condensed" font-size="46" text-anchor="start" direction="ltr" writing-mode="lr-tb" unicode-bidi="normal" text-decoration="none" transform="matrix(1 0 0 1 3376.89 599)">600</text></g><g><text fill="#000000" fill-opacity="1" font-family="Arial,Arial_MSFontService,sans-serif" font-style="normal" font-variant="normal" font-weight="400" font-stretch="normal" font-size="46" text-anchor="start" direction="ltr" writing-mode="lr-tb" unicode-bidi="normal" text-decoration="none" transform="matrix(1 0 0 1 3446.6 599)"> </text></g><g><text fill="#000000" fill-opacity="1" font-family="Aptos Narrow,Aptos Narrow_MSFontService,sans-serif" font-style="normal" font-variant="normal" font-weight="400" font-stretch="semi-condensed" font-size="46" text-anchor="start" direction="ltr" writing-mode="lr-tb" unicode-bidi="normal" text-decoration="none" transform="matrix(1 0 0 1 3455.76 599)">000</text></g><g><text fill="#000000" fill-opacity="1" font-family="Aptos Narrow,Aptos Narrow_MSFontService,sans-serif" font-style="normal" font-variant="normal" font-weight="400" font-stretch="semi-condensed" font-size="41" text-anchor="start" direction="ltr" writing-mode="lr-tb" unicode-bidi="normal" text-decoration="none" transform="matrix(1 0 0 1 3560.45 2236)">0</text></g><g><text fill="#000000" fill-opacity="1" font-family="Aptos Narrow,Aptos Narrow_MSFontService,sans-serif" font-style="normal" font-variant="normal" font-weight="400" font-stretch="semi-condensed" font-size="41" text-anchor="start" direction="ltr" writing-mode="lr-tb" unicode-bidi="normal" text-decoration="none" transform="matrix(1 0 0 1 3635.02 2236)">1</text></g><g><text fill="#000000" fill-opacity="1" font-family="Aptos Narrow,Aptos Narrow_MSFontService,sans-serif" font-style="normal" font-variant="normal" font-weight="400" font-stretch="semi-condensed" font-size="41" text-anchor="start" direction="ltr" writing-mode="lr-tb" unicode-bidi="normal" text-decoration="none" transform="matrix(1 0 0 1 3709.59 2236)">2</text></g><g><text fill="#000000" fill-opacity="1" font-family="Aptos Narrow,Aptos Narrow_MSFontService,sans-serif" font-style="normal" font-variant="normal" font-weight="400" font-stretch="semi-condensed" font-size="41" text-anchor="start" direction="ltr" writing-mode="lr-tb" unicode-bidi="normal" text-decoration="none" transform="matrix(1 0 0 1 3784.15 2236)">3</text></g><g><text fill="#000000" fill-opacity="1" font-family="Aptos Narrow,Aptos Narrow_MSFontService,sans-serif" font-style="normal" font-variant="normal" font-weight="400" font-stretch="semi-condensed" font-size="41" text-anchor="start" direction="ltr" writing-mode="lr-tb" unicode-bidi="normal" text-decoration="none" transform="matrix(1 0 0 1 3858.72 2236)">4</text></g><g><text fill="#000000" fill-opacity="1" font-family="Aptos Narrow,Aptos Narrow_MSFontService,sans-serif" font-style="normal" font-variant="normal" font-weight="400" font-stretch="semi-condensed" font-size="41" text-anchor="start" direction="ltr" writing-mode="lr-tb" unicode-bidi="normal" text-decoration="none" transform="matrix(1 0 0 1 3933.29 2236)">5</text></g><g><text fill="#000000" fill-opacity="1" font-family="Aptos Narrow,Aptos Narrow_MSFontService,sans-serif" font-style="normal" font-variant="normal" font-weight="400" font-stretch="semi-condensed" font-size="41" text-anchor="start" direction="ltr" writing-mode="lr-tb" unicode-bidi="normal" text-decoration="none" transform="matrix(1 0 0 1 4007.86 2236)">6</text></g><g><text fill="#000000" fill-opacity="1" font-family="Aptos Narrow,Aptos Narrow_MSFontService,sans-serif" font-style="normal" font-variant="normal" font-weight="400" font-stretch="semi-condensed" font-size="41" text-anchor="start" direction="ltr" writing-mode="lr-tb" unicode-bidi="normal" text-decoration="none" transform="matrix(1 0 0 1 4082.43 2236)">7</text></g><g><text fill="#000000" fill-opacity="1" font-family="Aptos Narrow,Aptos Narrow_MSFontService,sans-serif" font-style="normal" font-variant="normal" font-weight="400" font-stretch="semi-condensed" font-size="41" text-anchor="start" direction="ltr" writing-mode="lr-tb" unicode-bidi="normal" text-decoration="none" transform="matrix(1 0 0 1 4156.99 2236)">8</text></g><g><text fill="#000000" fill-opacity="1" font-family="Aptos Narrow,Aptos Narrow_MSFontService,sans-serif" font-style="normal" font-variant="normal" font-weight="400" font-stretch="semi-condensed" font-size="41" text-anchor="start" direction="ltr" writing-mode="lr-tb" unicode-bidi="normal" text-decoration="none" transform="matrix(1 0 0 1 4231.56 2236)">9</text></g><g><text fill="#000000" fill-opacity="1" font-family="Aptos Narrow,Aptos Narrow_MSFontService,sans-serif" font-style="normal" font-variant="normal" font-weight="400" font-stretch="semi-condensed" font-size="41" text-anchor="start" direction="ltr" writing-mode="lr-tb" unicode-bidi="normal" text-decoration="none" transform="matrix(1 0 0 1 4295.68 2236)">10</text></g><g><text fill="#000000" fill-opacity="1" font-family="Aptos Narrow,Aptos Narrow_MSFontService,sans-serif" font-style="normal" font-variant="normal" font-weight="400" font-stretch="semi-condensed" font-size="41" text-anchor="start" direction="ltr" writing-mode="lr-tb" unicode-bidi="normal" text-decoration="none" transform="matrix(1 0 0 1 4370.25 2236)">11</text></g><g><text fill="#000000" fill-opacity="1" font-family="Aptos Narrow,Aptos Narrow_MSFontService,sans-serif" font-style="normal" font-variant="normal" font-weight="400" font-stretch="semi-condensed" font-size="41" text-anchor="start" direction="ltr" writing-mode="lr-tb" unicode-bidi="normal" text-decoration="none" transform="matrix(1 0 0 1 4444.82 2236)">12</text></g><g><text fill="#000000" fill-opacity="1" font-family="Aptos Narrow,Aptos Narrow_MSFontService,sans-serif" font-style="normal" font-variant="normal" font-weight="400" font-stretch="semi-condensed" font-size="41" text-anchor="start" direction="ltr" writing-mode="lr-tb" unicode-bidi="normal" text-decoration="none" transform="matrix(1 0 0 1 4519.38 2236)">13</text></g><g><text fill="#000000" fill-opacity="1" font-family="Aptos Narrow,Aptos Narrow_MSFontService,sans-serif" font-style="normal" font-variant="normal" font-weight="400" font-stretch="semi-condensed" font-size="41" text-anchor="start" direction="ltr" writing-mode="lr-tb" unicode-bidi="normal" text-decoration="none" transform="matrix(1 0 0 1 4593.95 2236)">14</text></g><g><text fill="#000000" fill-opacity="1" font-family="Aptos Narrow,Aptos Narrow_MSFontService,sans-serif" font-style="normal" font-variant="normal" font-weight="400" font-stretch="semi-condensed" font-size="41" text-anchor="start" direction="ltr" writing-mode="lr-tb" unicode-bidi="normal" text-decoration="none" transform="matrix(1 0 0 1 4668.52 2236)">15</text></g><g><text fill="#000000" fill-opacity="1" font-family="Aptos Narrow,Aptos Narrow_MSFontService,sans-serif" font-style="normal" font-variant="normal" font-weight="400" font-stretch="semi-condensed" font-size="41" text-anchor="start" direction="ltr" writing-mode="lr-tb" unicode-bidi="normal" text-decoration="none" transform="matrix(1 0 0 1 4743.09 2236)">16</text></g><g><text fill="#000000" fill-opacity="1" font-family="Aptos Narrow,Aptos Narrow_MSFontService,sans-serif" font-style="normal" font-variant="normal" font-weight="400" font-stretch="semi-condensed" font-size="41" text-anchor="start" direction="ltr" writing-mode="lr-tb" unicode-bidi="normal" text-decoration="none" transform="matrix(1 0 0 1 4817.66 2236)">17</text></g><g><text fill="#000000" fill-opacity="1" font-family="Aptos Narrow,Aptos Narrow_MSFontService,sans-serif" font-style="normal" font-variant="normal" font-weight="400" font-stretch="semi-condensed" font-size="41" text-anchor="start" direction="ltr" writing-mode="lr-tb" unicode-bidi="normal" text-decoration="none" transform="matrix(1 0 0 1 4892.22 2236)">18</text></g><g><text fill="#000000" fill-opacity="1" font-family="Aptos Narrow,Aptos Narrow_MSFontService,sans-serif" font-style="normal" font-variant="normal" font-weight="400" font-stretch="semi-condensed" font-size="41" text-anchor="start" direction="ltr" writing-mode="lr-tb" unicode-bidi="normal" text-decoration="none" transform="matrix(1 0 0 1 4966.79 2236)">19</text></g><g><text fill="#000000" fill-opacity="1" font-family="Aptos Narrow,Aptos Narrow_MSFontService,sans-serif" font-style="normal" font-variant="normal" font-weight="400" font-stretch="semi-condensed" font-size="41" text-anchor="start" direction="ltr" writing-mode="lr-tb" unicode-bidi="normal" text-decoration="none" transform="matrix(1 0 0 1 5041.36 2236)">20</text></g><g><text fill="#000000" fill-opacity="1" font-family="Aptos Narrow,Aptos Narrow_MSFontService,sans-serif" font-style="normal" font-variant="normal" font-weight="400" font-stretch="semi-condensed" font-size="41" text-anchor="start" direction="ltr" writing-mode="lr-tb" unicode-bidi="normal" text-decoration="none" transform="matrix(1 0 0 1 5115.93 2236)">21</text></g><g><text fill="#000000" fill-opacity="1" font-family="Aptos Narrow,Aptos Narrow_MSFontService,sans-serif" font-style="normal" font-variant="normal" font-weight="400" font-stretch="semi-condensed" font-size="41" text-anchor="start" direction="ltr" writing-mode="lr-tb" unicode-bidi="normal" text-decoration="none" transform="matrix(1 0 0 1 5190.49 2236)">22</text></g><g><text fill="#000000" fill-opacity="1" font-family="Aptos Narrow,Aptos Narrow_MSFontService,sans-serif" font-style="normal" font-variant="normal" font-weight="400" font-stretch="semi-condensed" font-size="41" text-anchor="start" direction="ltr" writing-mode="lr-tb" unicode-bidi="normal" text-decoration="none" transform="matrix(1 0 0 1 5265.06 2236)">23</text></g><g><text fill="#000000" fill-opacity="1" font-family="Aptos Narrow,Aptos Narrow_MSFontService,sans-serif" font-style="normal" font-variant="normal" font-weight="400" font-stretch="semi-condensed" font-size="41" text-anchor="start" direction="ltr" writing-mode="lr-tb" unicode-bidi="normal" text-decoration="none" transform="matrix(1 0 0 1 5339.63 2236)">24</text></g><g><text fill="#000000" fill-opacity="1" font-family="Aptos Narrow,Aptos Narrow_MSFontService,sans-serif" font-style="normal" font-variant="normal" font-weight="400" font-stretch="semi-condensed" font-size="41" text-anchor="start" direction="ltr" writing-mode="lr-tb" unicode-bidi="normal" text-decoration="none" transform="matrix(1 0 0 1 5414.2 2236)">25</text></g><g><text fill="#000000" fill-opacity="1" font-family="Aptos Narrow,Aptos Narrow_MSFontService,sans-serif" font-style="normal" font-variant="normal" font-weight="400" font-stretch="semi-condensed" font-size="41" text-anchor="start" direction="ltr" writing-mode="lr-tb" unicode-bidi="normal" text-decoration="none" transform="matrix(1 0 0 1 5488.77 2236)">26</text></g><g><text fill="#000000" fill-opacity="1" font-family="Aptos Narrow,Aptos Narrow_MSFontService,sans-serif" font-style="normal" font-variant="normal" font-weight="400" font-stretch="semi-condensed" font-size="41" text-anchor="start" direction="ltr" writing-mode="lr-tb" unicode-bidi="normal" text-decoration="none" transform="matrix(1 0 0 1 5563.33 2236)">27</text></g><g><text fill="#000000" fill-opacity="1" font-family="Aptos Narrow,Aptos Narrow_MSFontService,sans-serif" font-style="normal" font-variant="normal" font-weight="400" font-stretch="semi-condensed" font-size="41" text-anchor="start" direction="ltr" writing-mode="lr-tb" unicode-bidi="normal" text-decoration="none" transform="matrix(1 0 0 1 5637.9 2236)">28</text></g><g><text fill="#000000" fill-opacity="1" font-family="Aptos Narrow,Aptos Narrow_MSFontService,sans-serif" font-style="normal" font-variant="normal" font-weight="400" font-stretch="semi-condensed" font-size="41" text-anchor="start" direction="ltr" writing-mode="lr-tb" unicode-bidi="normal" text-decoration="none" transform="matrix(1 0 0 1 5712.47 2236)">29</text></g><g><text fill="#000000" fill-opacity="1" font-family="Aptos Narrow,Aptos Narrow_MSFontService,sans-serif" font-style="normal" font-variant="normal" font-weight="400" font-stretch="semi-condensed" font-size="41" text-anchor="start" direction="ltr" writing-mode="lr-tb" unicode-bidi="normal" text-decoration="none" transform="matrix(1 0 0 1 5787.04 2236)">30</text></g><g><text fill="#000000" fill-opacity="1" font-family="Aptos Narrow,Aptos Narrow_MSFontService,sans-serif" font-style="normal" font-variant="normal" font-weight="400" font-stretch="semi-condensed" font-size="41" text-anchor="start" direction="ltr" writing-mode="lr-tb" unicode-bidi="normal" text-decoration="none" transform="matrix(1 0 0 1 5861.61 2236)">31</text></g><g><text fill="#000000" fill-opacity="1" font-family="Aptos Narrow,Aptos Narrow_MSFontService,sans-serif" font-style="normal" font-variant="normal" font-weight="400" font-stretch="semi-condensed" font-size="41" text-anchor="start" direction="ltr" writing-mode="lr-tb" unicode-bidi="normal" text-decoration="none" transform="matrix(1 0 0 1 5936.17 2236)">32</text></g><g><text fill="#000000" fill-opacity="1" font-family="Aptos Narrow,Aptos Narrow_MSFontService,sans-serif" font-style="normal" font-variant="normal" font-weight="400" font-stretch="semi-condensed" font-size="41" text-anchor="start" direction="ltr" writing-mode="lr-tb" unicode-bidi="normal" text-decoration="none" transform="matrix(1 0 0 1 6010.74 2236)">33</text></g><g><text fill="#000000" fill-opacity="1" font-family="Aptos Narrow,Aptos Narrow_MSFontService,sans-serif" font-style="normal" font-variant="normal" font-weight="400" font-stretch="semi-condensed" font-size="41" text-anchor="start" direction="ltr" writing-mode="lr-tb" unicode-bidi="normal" text-decoration="none" transform="matrix(1 0 0 1 6085.31 2236)">34</text></g><g><text fill="#000000" fill-opacity="1" font-family="Aptos Narrow,Aptos Narrow_MSFontService,sans-serif" font-style="normal" font-variant="normal" font-weight="400" font-stretch="semi-condensed" font-size="41" text-anchor="start" direction="ltr" writing-mode="lr-tb" unicode-bidi="normal" text-decoration="none" transform="matrix(1 0 0 1 6159.88 2236)">35</text></g><g><text fill="#000000" fill-opacity="1" font-family="Aptos Narrow,Aptos Narrow_MSFontService,sans-serif" font-style="normal" font-variant="normal" font-weight="400" font-stretch="semi-condensed" font-size="41" text-anchor="start" direction="ltr" writing-mode="lr-tb" unicode-bidi="normal" text-decoration="none" transform="matrix(1 0 0 1 6234.45 2236)">36</text></g><g><text fill="#000000" fill-opacity="1" font-family="Aptos Narrow,Aptos Narrow_MSFontService,sans-serif" font-style="normal" font-variant="normal" font-weight="400" font-stretch="semi-condensed" font-size="41" text-anchor="start" direction="ltr" writing-mode="lr-tb" unicode-bidi="normal" text-decoration="none" transform="matrix(1 0 0 1 6309.01 2236)">37</text></g><g><text fill="#000000" fill-opacity="1" font-family="Aptos Narrow,Aptos Narrow_MSFontService,sans-serif" font-style="normal" font-variant="normal" font-weight="400" font-stretch="semi-condensed" font-size="41" text-anchor="start" direction="ltr" writing-mode="lr-tb" unicode-bidi="normal" text-decoration="none" transform="matrix(1 0 0 1 6383.58 2236)">38</text></g><g><text fill="#000000" fill-opacity="1" font-family="Aptos Narrow,Aptos Narrow_MSFontService,sans-serif" font-style="normal" font-variant="normal" font-weight="400" font-stretch="semi-condensed" font-size="41" text-anchor="start" direction="ltr" writing-mode="lr-tb" unicode-bidi="normal" text-decoration="none" transform="matrix(1 0 0 1 6458.15 2236)">39</text></g><g><text fill="#000000" fill-opacity="1" font-family="Aptos Narrow,Aptos Narrow_MSFontService,sans-serif" font-style="normal" font-variant="normal" font-weight="400" font-stretch="semi-condensed" font-size="46" text-anchor="start" direction="ltr" writing-mode="lr-tb" unicode-bidi="normal" text-decoration="none" transform="matrix(6.12323e-17 -1 1 6.12323e-17 3317.78 1384)">€</text></g><g><text fill="#000000" fill-opacity="1" font-family="Aptos Narrow,Aptos Narrow_MSFontService,sans-serif" font-style="normal" font-variant="normal" font-weight="400" font-stretch="semi-condensed" font-size="46" text-anchor="start" direction="ltr" writing-mode="lr-tb" unicode-bidi="normal" text-decoration="none" transform="matrix(1 0 0 1 4945.22 2304)">Aika vuosina</text></g><g><text fill="#000000" fill-opacity="1" font-family="Aptos Narrow,Aptos Narrow_MSFontService,sans-serif" font-style="normal" font-variant="normal" font-weight="400" font-stretch="semi-condensed" font-size="73" text-anchor="start" direction="ltr" writing-mode="lr-tb" unicode-bidi="normal" text-decoration="none" transform="matrix(1 0 0 1 3615.14 420)">Pääoman kehitys 40 vuoden aikana 200€ kuukausisijoituksilla (CAGR 11.3 %, rahastokulut </text></g><g><text fill="#000000" fill-opacity="1" font-family="Aptos Narrow,Aptos Narrow_MSFontService,sans-serif" font-style="normal" font-variant="normal" font-weight="400" font-stretch="semi-condensed" font-size="73" text-anchor="start" direction="ltr" writing-mode="lr-tb" unicode-bidi="normal" text-decoration="none" transform="matrix(1 0 0 1 4282.59 509)">0.5 %, CAGR ja kulut laskettu kuukausittain)</text></g><rect x="3218.5" y="316.5" width="3400" height="2058" stroke="#D9D9D9" stroke-width="3.4375" stroke-linecap="butt" stroke-linejoin="round" stroke-miterlimit="10" stroke-opacity="1" fill="none"/></g></g></svg>