<svg version="1.1" xmlns="http://www.w3.org/2000/svg" xmlns:xlink="http://www.w3.org/1999/xlink" width="663" height="96"><defs><clipPath id="kwkIueSXmnBH"><path fill="none" stroke="none" d=" M 0 0 L 663 0 L 663 96 L 0 96 L 0 0 Z"/></clipPath></defs><g transform="scale(1,1)" clip-path="url(#kwkIueSXmnBH)"><g transform="translate(-70,-258)"><path fill="rgb(101,87,210)" stroke="none" paint-order="stroke fill markers" fill-rule="evenodd" d=" M 450 115 L 472 115 C 473.1045694996616 115 474 115.8954305003384 474 117 L 474 139 C 474 140.10456949966158 473.1045694996616 141 472 141 L 450 141 C 448.8954305003384 141 448 140.10456949966158 448 139 L 448 117 C 448 115.8954305003384 448.8954305003384 115 450 115 Z" fill-opacity="1"/><g transform="translate(448,115)"><path fill="none" stroke="rgb(255,255,255)" paint-order="fill stroke markers" d=" M 4.44 13.76 L 9.75 19.07 L 21.99 6.83" stroke-opacity="1" stroke-linecap="square" stroke-miterlimit="10" stroke-width="2.6"/><g transform="translate(-448,-115)"><text fill="rgb(0,0,0)" stroke="none" font-family="geogebra-sans-serif, sans-serif" font-size="32px" font-style="normal" font-weight="normal" text-decoration="normal" x="483" y="140" text-anchor="start" dominant-baseline="alphabetic" fill-opacity="1">Serif</text><g transform="scale(35,35)"><g transform="translate(2.319871908910857,8.407142857142857)"><path fill="rgb(0,0,0)" stroke="none" paint-order="stroke fill markers" d=" M 0.294 -0.64 L 0.294 -0.079 Q 0.294 -0.049 0.306 -0.041 Q 0.323 -0.031 0.387 -0.031 L 0.419 -0.031 L 0.419 0 Q 0.384 -0.003 0.257 -0.003 Q 0.13 -0.003 0.095 0 L 0.095 -0.031 L 0.127 -0.031 Q 0.20400000000000001 -0.031 0.215 -0.049 L 0.216 -0.05 Q 0.22 -0.058 0.22 -0.079 L 0.22 -0.597 Q 0.168 -0.5710000000000001 0.089 -0.5710000000000001 L 0.089 -0.602 Q 0.209 -0.602 0.271 -0.666 Q 0.29 -0.666 0.293 -0.659 L 0.293 -0.659 L 0.293 -0.658 Q 0.294 -0.655 0.294 -0.64 Z"/></g><g transform="translate(2.819871908910857,8.407142857142857)"><path fill="rgb(0,0,0)" stroke="none" paint-order="stroke fill markers" d=" M 0.46 -0.32 Q 0.46 -0.17400000000000002 0.423 -0.094 Q 0.364 0.018000000000000002 0.249 0.022 Q 0.158 0.022 0.10300000000000001 -0.05 Q 0.092 -0.063 0.084 -0.079 Q 0.039 -0.162 0.039 -0.32 Q 0.039 -0.467 0.076 -0.547 Q 0.126 -0.659 0.23800000000000002 -0.666 L 0.25 -0.666 Q 0.339 -0.666 0.395 -0.595 L 0.395 -0.594 Q 0.40900000000000003 -0.5760000000000001 0.42 -0.554 Q 0.46 -0.46900000000000003 0.46 -0.32 M 0.249 0 L 0.249 0 Q 0.312 0 0.34600000000000003 -0.061 Q 0.36 -0.088 0.366 -0.125 Q 0.377 -0.189 0.377 -0.332 Q 0.377 -0.47100000000000003 0.367 -0.527 Q 0.34900000000000003 -0.622 0.275 -0.641 Q 0.262 -0.644 0.249 -0.644 Q 0.179 -0.644 0.147 -0.5740000000000001 Q 0.136 -0.55 0.13 -0.516 Q 0.122 -0.462 0.122 -0.332 Q 0.122 -0.181 0.133 -0.121 Q 0.151 -0.025 0.221 -0.004 Q 0.23500000000000001 0 0.249 0 Z"/></g><g transform="translate(3.652871908910857,8.407142857142857)"><path fill="rgb(0,0,0)" stroke="none" paint-order="stroke fill markers" d=" M 0.685 -0.712 L 0.179 0.041 Q 0.169 0.055 0.159 0.056 Q 0.14400000000000002 0.056 0.14 0.041 Q 0.139 0.038 0.139 0.036000000000000004 Q 0.139 0.029 0.148 0.016 L 0.597 -0.653 L 0.596 -0.654 Q 0.551 -0.624 0.48 -0.62 Q 0.47100000000000003 -0.619 0.463 -0.619 Q 0.386 -0.619 0.312 -0.661 Q 0.333 -0.609 0.333 -0.548 Q 0.333 -0.442 0.278 -0.382 Q 0.244 -0.34700000000000003 0.203 -0.34700000000000003 Q 0.138 -0.34700000000000003 0.094 -0.41200000000000003 Q 0.056 -0.46900000000000003 0.056 -0.549 Q 0.056 -0.652 0.11800000000000001 -0.712 Q 0.157 -0.75 0.203 -0.75 Q 0.23900000000000002 -0.75 0.275 -0.718 Q 0.356 -0.641 0.462 -0.641 Q 0.582 -0.641 0.652 -0.736 Q 0.664 -0.75 0.673 -0.75 Q 0.6890000000000001 -0.75 0.6920000000000001 -0.735 Q 0.6930000000000001 -0.732 0.6930000000000001 -0.73 Q 0.6930000000000001 -0.724 0.685 -0.712 M 0.20400000000000001 -0.369 Q 0.25 -0.369 0.281 -0.428 Q 0.308 -0.47900000000000004 0.308 -0.549 Q 0.308 -0.649 0.258 -0.7020000000000001 Q 0.233 -0.728 0.20400000000000001 -0.728 Q 0.156 -0.728 0.133 -0.662 Q 0.11800000000000001 -0.618 0.11800000000000001 -0.548 Q 0.11800000000000001 -0.395 0.186 -0.372 Q 0.195 -0.369 0.20400000000000001 -0.369 M 0.647 0.034 Q 0.6930000000000001 0.034 0.724 -0.025 Q 0.751 -0.076 0.751 -0.146 Q 0.751 -0.246 0.7010000000000001 -0.299 Q 0.676 -0.325 0.647 -0.325 Q 0.599 -0.325 0.5760000000000001 -0.259 L 0.5760000000000001 -0.258 Q 0.561 -0.214 0.561 -0.145 Q 0.561 0.008 0.629 0.031 Q 0.638 0.034 0.647 0.034 M 0.776 -0.145 Q 0.776 -0.039 0.721 0.021 Q 0.687 0.056 0.646 0.056 Q 0.581 0.056 0.537 -0.009000000000000001 Q 0.499 -0.066 0.499 -0.146 Q 0.499 -0.249 0.561 -0.309 Q 0.6 -0.34700000000000003 0.646 -0.34700000000000003 Q 0.706 -0.34700000000000003 0.745 -0.277 Q 0.776 -0.221 0.776 -0.145 Z"/></g><g transform="translate(4.7080941311330795,8.407142857142857)"><path fill="rgb(0,0,0)" stroke="none" paint-order="stroke fill markers" d=" M 0.661 -0.23 L 0.116 -0.23 Q 0.084 -0.23 0.083 -0.25 Q 0.083 -0.27 0.116 -0.27 L 0.661 -0.27 Q 0.6930000000000001 -0.27 0.6940000000000001 -0.25 Q 0.6940000000000001 -0.23 0.661 -0.23 Z"/></g><g transform="translate(5.708316353355301,8.407142857142857)"><path fill="rgb(0,0,0)" stroke="none" paint-order="stroke fill markers" d=" M 0.449 -0.17400000000000002 L 0.449 -0.17400000000000002 L 0.421 0 L 0.05 0 Q 0.05 -0.025 0.056 -0.032 L 0.061 -0.037 L 0.253 -0.251 Q 0.358 -0.369 0.358 -0.47200000000000003 Q 0.358 -0.561 0.304 -0.607 L 0.303 -0.608 L 0.302 -0.608 Q 0.27 -0.635 0.224 -0.635 Q 0.152 -0.635 0.109 -0.5730000000000001 Q 0.097 -0.555 0.089 -0.533 Q 0.092 -0.534 0.10200000000000001 -0.534 Q 0.14200000000000002 -0.534 0.153 -0.498 L 0.153 -0.497 Q 0.155 -0.49 0.155 -0.482 Q 0.155 -0.442 0.117 -0.431 Q 0.109 -0.429 0.10300000000000001 -0.429 Q 0.066 -0.429 0.054 -0.46 Q 0.05 -0.47100000000000003 0.05 -0.485 Q 0.05 -0.562 0.109 -0.617 Q 0.162 -0.666 0.23700000000000002 -0.666 Q 0.34700000000000003 -0.666 0.40800000000000003 -0.592 Q 0.443 -0.549 0.448 -0.49 Q 0.449 -0.481 0.449 -0.47200000000000003 Q 0.449 -0.399 0.394 -0.333 Q 0.365 -0.299 0.304 -0.243 L 0.243 -0.189 L 0.233 -0.18 L 0.127 -0.077 L 0.307 -0.077 Q 0.395 -0.077 0.402 -0.085 Q 0.41200000000000003 -0.099 0.424 -0.17400000000000002 L 0.449 -0.17400000000000002 Z"/></g><g transform="translate(6.208316353355301,8.407142857142857)"><path fill="rgb(0,0,0)" stroke="none" paint-order="stroke fill markers" d=" M 0.46 -0.32 Q 0.46 -0.17400000000000002 0.423 -0.094 Q 0.364 0.018000000000000002 0.249 0.022 Q 0.158 0.022 0.10300000000000001 -0.05 Q 0.092 -0.063 0.084 -0.079 Q 0.039 -0.162 0.039 -0.32 Q 0.039 -0.467 0.076 -0.547 Q 0.126 -0.659 0.23800000000000002 -0.666 L 0.25 -0.666 Q 0.339 -0.666 0.395 -0.595 L 0.395 -0.594 Q 0.40900000000000003 -0.5760000000000001 0.42 -0.554 Q 0.46 -0.46900000000000003 0.46 -0.32 M 0.249 0 L 0.249 0 Q 0.312 0 0.34600000000000003 -0.061 Q 0.36 -0.088 0.366 -0.125 Q 0.377 -0.189 0.377 -0.332 Q 0.377 -0.47100000000000003 0.367 -0.527 Q 0.34900000000000003 -0.622 0.275 -0.641 Q 0.262 -0.644 0.249 -0.644 Q 0.179 -0.644 0.147 -0.5740000000000001 Q 0.136 -0.55 0.13 -0.516 Q 0.122 -0.462 0.122 -0.332 Q 0.122 -0.181 0.133 -0.121 Q 0.151 -0.025 0.221 -0.004 Q 0.23500000000000001 0 0.249 0 Z"/></g><g transform="translate(7.041316353355302,8.407142857142857)"><path fill="rgb(0,0,0)" stroke="none" paint-order="stroke fill markers" d=" M 0.685 -0.712 L 0.179 0.041 Q 0.169 0.055 0.159 0.056 Q 0.14400000000000002 0.056 0.14 0.041 Q 0.139 0.038 0.139 0.036000000000000004 Q 0.139 0.029 0.148 0.016 L 0.597 -0.653 L 0.596 -0.654 Q 0.551 -0.624 0.48 -0.62 Q 0.47100000000000003 -0.619 0.463 -0.619 Q 0.386 -0.619 0.312 -0.661 Q 0.333 -0.609 0.333 -0.548 Q 0.333 -0.442 0.278 -0.382 Q 0.244 -0.34700000000000003 0.203 -0.34700000000000003 Q 0.138 -0.34700000000000003 0.094 -0.41200000000000003 Q 0.056 -0.46900000000000003 0.056 -0.549 Q 0.056 -0.652 0.11800000000000001 -0.712 Q 0.157 -0.75 0.203 -0.75 Q 0.23900000000000002 -0.75 0.275 -0.718 Q 0.356 -0.641 0.462 -0.641 Q 0.582 -0.641 0.652 -0.736 Q 0.664 -0.75 0.673 -0.75 Q 0.6890000000000001 -0.75 0.6920000000000001 -0.735 Q 0.6930000000000001 -0.732 0.6930000000000001 -0.73 Q 0.6930000000000001 -0.724 0.685 -0.712 M 0.20400000000000001 -0.369 Q 0.25 -0.369 0.281 -0.428 Q 0.308 -0.47900000000000004 0.308 -0.549 Q 0.308 -0.649 0.258 -0.7020000000000001 Q 0.233 -0.728 0.20400000000000001 -0.728 Q 0.156 -0.728 0.133 -0.662 Q 0.11800000000000001 -0.618 0.11800000000000001 -0.548 Q 0.11800000000000001 -0.395 0.186 -0.372 Q 0.195 -0.369 0.20400000000000001 -0.369 M 0.647 0.034 Q 0.6930000000000001 0.034 0.724 -0.025 Q 0.751 -0.076 0.751 -0.146 Q 0.751 -0.246 0.7010000000000001 -0.299 Q 0.676 -0.325 0.647 -0.325 Q 0.599 -0.325 0.5760000000000001 -0.259 L 0.5760000000000001 -0.258 Q 0.561 -0.214 0.561 -0.145 Q 0.561 0.008 0.629 0.031 Q 0.638 0.034 0.647 0.034 M 0.776 -0.145 Q 0.776 -0.039 0.721 0.021 Q 0.687 0.056 0.646 0.056 Q 0.581 0.056 0.537 -0.009000000000000001 Q 0.499 -0.066 0.499 -0.146 Q 0.499 -0.249 0.561 -0.309 Q 0.6 -0.34700000000000003 0.646 -0.34700000000000003 Q 0.706 -0.34700000000000003 0.745 -0.277 Q 0.776 -0.221 0.776 -0.145 Z"/></g><g transform="translate(8.096538575577524,8.407142857142857)"><path fill="rgb(0,0,0)" stroke="none" paint-order="stroke fill markers" d=" M 0.40900000000000003 -0.23 L 0.40900000000000003 0.05 Q 0.40900000000000003 0.082 0.389 0.083 Q 0.369 0.083 0.369 0.05 L 0.369 -0.23 L 0.089 -0.23 Q 0.057 -0.23 0.056 -0.25 Q 0.056 -0.27 0.089 -0.27 L 0.369 -0.27 L 0.369 -0.55 Q 0.369 -0.582 0.389 -0.583 Q 0.40900000000000003 -0.583 0.40900000000000003 -0.55 L 0.40900000000000003 -0.27 L 0.6880000000000001 -0.27 Q 0.72 -0.27 0.721 -0.25 Q 0.721 -0.23 0.6880000000000001 -0.23 L 0.40900000000000003 -0.23 Z"/></g><g transform="translate(9.096760797799746,8.407142857142857)"><path fill="rgb(0,0,0)" stroke="none" paint-order="stroke fill markers" d=" M 0.449 -0.201 L 0.449 -0.201 Q 0.449 -0.098 0.372 -0.031 Q 0.31 0.022 0.231 0.022 Q 0.139 0.022 0.085 -0.055 Q 0.05 -0.10400000000000001 0.05 -0.161 Q 0.05 -0.20700000000000002 0.091 -0.213 Q 0.095 -0.214 0.099 -0.214 Q 0.136 -0.214 0.147 -0.181 Q 0.149 -0.17300000000000001 0.149 -0.165 Q 0.149 -0.133 0.121 -0.121 Q 0.111 -0.116 0.099 -0.116 Q 0.088 -0.116 0.082 -0.11800000000000001 Q 0.1 -0.055 0.159 -0.024 Q 0.192 -0.006 0.229 -0.006 Q 0.296 -0.006 0.336 -0.07100000000000001 Q 0.36 -0.113 0.36 -0.20800000000000002 Q 0.36 -0.292 0.342 -0.334 Q 0.314 -0.398 0.257 -0.398 Q 0.176 -0.398 0.128 -0.328 Q 0.122 -0.319 0.115 -0.319 Q 0.10200000000000001 -0.319 0.101 -0.333 L 0.101 -0.34500000000000003 L 0.101 -0.641 Q 0.101 -0.664 0.111 -0.665 Q 0.115 -0.665 0.123 -0.662 Q 0.186 -0.634 0.256 -0.634 Q 0.328 -0.634 0.392 -0.663 Q 0.397 -0.666 0.4 -0.666 Q 0.41000000000000003 -0.666 0.41000000000000003 -0.655 Q 0.41000000000000003 -0.642 0.378 -0.613 Q 0.31 -0.551 0.217 -0.551 Q 0.17500000000000002 -0.551 0.132 -0.5640000000000001 L 0.132 -0.369 Q 0.184 -0.42 0.259 -0.42 Q 0.34700000000000003 -0.42 0.404 -0.343 Q 0.449 -0.28200000000000003 0.449 -0.201 Z"/></g><g transform="translate(9.929760797799746,8.407142857142857)"><path fill="rgb(0,0,0)" stroke="none" paint-order="stroke fill markers" d=" M 0.685 -0.712 L 0.179 0.041 Q 0.169 0.055 0.159 0.056 Q 0.14400000000000002 0.056 0.14 0.041 Q 0.139 0.038 0.139 0.036000000000000004 Q 0.139 0.029 0.148 0.016 L 0.597 -0.653 L 0.596 -0.654 Q 0.551 -0.624 0.48 -0.62 Q 0.47100000000000003 -0.619 0.463 -0.619 Q 0.386 -0.619 0.312 -0.661 Q 0.333 -0.609 0.333 -0.548 Q 0.333 -0.442 0.278 -0.382 Q 0.244 -0.34700000000000003 0.203 -0.34700000000000003 Q 0.138 -0.34700000000000003 0.094 -0.41200000000000003 Q 0.056 -0.46900000000000003 0.056 -0.549 Q 0.056 -0.652 0.11800000000000001 -0.712 Q 0.157 -0.75 0.203 -0.75 Q 0.23900000000000002 -0.75 0.275 -0.718 Q 0.356 -0.641 0.462 -0.641 Q 0.582 -0.641 0.652 -0.736 Q 0.664 -0.75 0.673 -0.75 Q 0.6890000000000001 -0.75 0.6920000000000001 -0.735 Q 0.6930000000000001 -0.732 0.6930000000000001 -0.73 Q 0.6930000000000001 -0.724 0.685 -0.712 M 0.20400000000000001 -0.369 Q 0.25 -0.369 0.281 -0.428 Q 0.308 -0.47900000000000004 0.308 -0.549 Q 0.308 -0.649 0.258 -0.7020000000000001 Q 0.233 -0.728 0.20400000000000001 -0.728 Q 0.156 -0.728 0.133 -0.662 Q 0.11800000000000001 -0.618 0.11800000000000001 -0.548 Q 0.11800000000000001 -0.395 0.186 -0.372 Q 0.195 -0.369 0.20400000000000001 -0.369 M 0.647 0.034 Q 0.6930000000000001 0.034 0.724 -0.025 Q 0.751 -0.076 0.751 -0.146 Q 0.751 -0.246 0.7010000000000001 -0.299 Q 0.676 -0.325 0.647 -0.325 Q 0.599 -0.325 0.5760000000000001 -0.259 L 0.5760000000000001 -0.258 Q 0.561 -0.214 0.561 -0.145 Q 0.561 0.008 0.629 0.031 Q 0.638 0.034 0.647 0.034 M 0.776 -0.145 Q 0.776 -0.039 0.721 0.021 Q 0.687 0.056 0.646 0.056 Q 0.581 0.056 0.537 -0.009000000000000001 Q 0.499 -0.066 0.499 -0.146 Q 0.499 -0.249 0.561 -0.309 Q 0.6 -0.34700000000000003 0.646 -0.34700000000000003 Q 0.706 -0.34700000000000003 0.745 -0.277 Q 0.776 -0.221 0.776 -0.145 Z"/></g><g transform="translate(10.984983020021968,8.407142857142857)"><path fill="rgb(0,0,0)" stroke="none" paint-order="stroke fill markers" d=" M 0.40900000000000003 -0.23 L 0.40900000000000003 0.05 Q 0.40900000000000003 0.082 0.389 0.083 Q 0.369 0.083 0.369 0.05 L 0.369 -0.23 L 0.089 -0.23 Q 0.057 -0.23 0.056 -0.25 Q 0.056 -0.27 0.089 -0.27 L 0.369 -0.27 L 0.369 -0.55 Q 0.369 -0.582 0.389 -0.583 Q 0.40900000000000003 -0.583 0.40900000000000003 -0.55 L 0.40900000000000003 -0.27 L 0.6880000000000001 -0.27 Q 0.72 -0.27 0.721 -0.25 Q 0.721 -0.23 0.6880000000000001 -0.23 L 0.40900000000000003 -0.23 Z"/></g><g transform="translate(11.98520524224419,8.407142857142857)"><path fill="rgb(0,0,0)" stroke="none" paint-order="stroke fill markers" d=" M 0.294 -0.64 L 0.294 -0.079 Q 0.294 -0.049 0.306 -0.041 Q 0.323 -0.031 0.387 -0.031 L 0.419 -0.031 L 0.419 0 Q 0.384 -0.003 0.257 -0.003 Q 0.13 -0.003 0.095 0 L 0.095 -0.031 L 0.127 -0.031 Q 0.20400000000000001 -0.031 0.215 -0.049 L 0.216 -0.05 Q 0.22 -0.058 0.22 -0.079 L 0.22 -0.597 Q 0.168 -0.5710000000000001 0.089 -0.5710000000000001 L 0.089 -0.602 Q 0.209 -0.602 0.271 -0.666 Q 0.29 -0.666 0.293 -0.659 L 0.293 -0.659 L 0.293 -0.658 Q 0.294 -0.655 0.294 -0.64 Z"/></g><g transform="translate(12.48520524224419,8.407142857142857)"><path fill="rgb(0,0,0)" stroke="none" paint-order="stroke fill markers" d=" M 0.46 -0.32 Q 0.46 -0.17400000000000002 0.423 -0.094 Q 0.364 0.018000000000000002 0.249 0.022 Q 0.158 0.022 0.10300000000000001 -0.05 Q 0.092 -0.063 0.084 -0.079 Q 0.039 -0.162 0.039 -0.32 Q 0.039 -0.467 0.076 -0.547 Q 0.126 -0.659 0.23800000000000002 -0.666 L 0.25 -0.666 Q 0.339 -0.666 0.395 -0.595 L 0.395 -0.594 Q 0.40900000000000003 -0.5760000000000001 0.42 -0.554 Q 0.46 -0.46900000000000003 0.46 -0.32 M 0.249 0 L 0.249 0 Q 0.312 0 0.34600000000000003 -0.061 Q 0.36 -0.088 0.366 -0.125 Q 0.377 -0.189 0.377 -0.332 Q 0.377 -0.47100000000000003 0.367 -0.527 Q 0.34900000000000003 -0.622 0.275 -0.641 Q 0.262 -0.644 0.249 -0.644 Q 0.179 -0.644 0.147 -0.5740000000000001 Q 0.136 -0.55 0.13 -0.516 Q 0.122 -0.462 0.122 -0.332 Q 0.122 -0.181 0.133 -0.121 Q 0.151 -0.025 0.221 -0.004 Q 0.23500000000000001 0 0.249 0 Z"/></g><g transform="translate(13.31820524224419,8.407142857142857)"><path fill="rgb(0,0,0)" stroke="none" paint-order="stroke fill markers" d=" M 0.685 -0.712 L 0.179 0.041 Q 0.169 0.055 0.159 0.056 Q 0.14400000000000002 0.056 0.14 0.041 Q 0.139 0.038 0.139 0.036000000000000004 Q 0.139 0.029 0.148 0.016 L 0.597 -0.653 L 0.596 -0.654 Q 0.551 -0.624 0.48 -0.62 Q 0.47100000000000003 -0.619 0.463 -0.619 Q 0.386 -0.619 0.312 -0.661 Q 0.333 -0.609 0.333 -0.548 Q 0.333 -0.442 0.278 -0.382 Q 0.244 -0.34700000000000003 0.203 -0.34700000000000003 Q 0.138 -0.34700000000000003 0.094 -0.41200000000000003 Q 0.056 -0.46900000000000003 0.056 -0.549 Q 0.056 -0.652 0.11800000000000001 -0.712 Q 0.157 -0.75 0.203 -0.75 Q 0.23900000000000002 -0.75 0.275 -0.718 Q 0.356 -0.641 0.462 -0.641 Q 0.582 -0.641 0.652 -0.736 Q 0.664 -0.75 0.673 -0.75 Q 0.6890000000000001 -0.75 0.6920000000000001 -0.735 Q 0.6930000000000001 -0.732 0.6930000000000001 -0.73 Q 0.6930000000000001 -0.724 0.685 -0.712 M 0.20400000000000001 -0.369 Q 0.25 -0.369 0.281 -0.428 Q 0.308 -0.47900000000000004 0.308 -0.549 Q 0.308 -0.649 0.258 -0.7020000000000001 Q 0.233 -0.728 0.20400000000000001 -0.728 Q 0.156 -0.728 0.133 -0.662 Q 0.11800000000000001 -0.618 0.11800000000000001 -0.548 Q 0.11800000000000001 -0.395 0.186 -0.372 Q 0.195 -0.369 0.20400000000000001 -0.369 M 0.647 0.034 Q 0.6930000000000001 0.034 0.724 -0.025 Q 0.751 -0.076 0.751 -0.146 Q 0.751 -0.246 0.7010000000000001 -0.299 Q 0.676 -0.325 0.647 -0.325 Q 0.599 -0.325 0.5760000000000001 -0.259 L 0.5760000000000001 -0.258 Q 0.561 -0.214 0.561 -0.145 Q 0.561 0.008 0.629 0.031 Q 0.638 0.034 0.647 0.034 M 0.776 -0.145 Q 0.776 -0.039 0.721 0.021 Q 0.687 0.056 0.646 0.056 Q 0.581 0.056 0.537 -0.009000000000000001 Q 0.499 -0.066 0.499 -0.146 Q 0.499 -0.249 0.561 -0.309 Q 0.6 -0.34700000000000003 0.646 -0.34700000000000003 Q 0.706 -0.34700000000000003 0.745 -0.277 Q 0.776 -0.221 0.776 -0.145 Z"/></g><g transform="translate(14.373427464466412,8.407142857142857)"><path fill="rgb(0,0,0)" stroke="none" paint-order="stroke fill markers" d=" M 0.40900000000000003 -0.23 L 0.40900000000000003 0.05 Q 0.40900000000000003 0.082 0.389 0.083 Q 0.369 0.083 0.369 0.05 L 0.369 -0.23 L 0.089 -0.23 Q 0.057 -0.23 0.056 -0.25 Q 0.056 -0.27 0.089 -0.27 L 0.369 -0.27 L 0.369 -0.55 Q 0.369 -0.582 0.389 -0.583 Q 0.40900000000000003 -0.583 0.40900000000000003 -0.55 L 0.40900000000000003 -0.27 L 0.6880000000000001 -0.27 Q 0.72 -0.27 0.721 -0.25 Q 0.721 -0.23 0.6880000000000001 -0.23 L 0.40900000000000003 -0.23 Z"/></g><g transform="translate(15.373649686688633,8.407142857142857)"><path fill="rgb(0,0,0)" stroke="none" paint-order="stroke fill markers" d=" M 0.294 -0.64 L 0.294 -0.079 Q 0.294 -0.049 0.306 -0.041 Q 0.323 -0.031 0.387 -0.031 L 0.419 -0.031 L 0.419 0 Q 0.384 -0.003 0.257 -0.003 Q 0.13 -0.003 0.095 0 L 0.095 -0.031 L 0.127 -0.031 Q 0.20400000000000001 -0.031 0.215 -0.049 L 0.216 -0.05 Q 0.22 -0.058 0.22 -0.079 L 0.22 -0.597 Q 0.168 -0.5710000000000001 0.089 -0.5710000000000001 L 0.089 -0.602 Q 0.209 -0.602 0.271 -0.666 Q 0.29 -0.666 0.293 -0.659 L 0.293 -0.659 L 0.293 -0.658 Q 0.294 -0.655 0.294 -0.64 Z"/></g><g transform="translate(15.873649686688633,8.407142857142857)"><path fill="rgb(0,0,0)" stroke="none" paint-order="stroke fill markers" d=" M 0.449 -0.201 L 0.449 -0.201 Q 0.449 -0.098 0.372 -0.031 Q 0.31 0.022 0.231 0.022 Q 0.139 0.022 0.085 -0.055 Q 0.05 -0.10400000000000001 0.05 -0.161 Q 0.05 -0.20700000000000002 0.091 -0.213 Q 0.095 -0.214 0.099 -0.214 Q 0.136 -0.214 0.147 -0.181 Q 0.149 -0.17300000000000001 0.149 -0.165 Q 0.149 -0.133 0.121 -0.121 Q 0.111 -0.116 0.099 -0.116 Q 0.088 -0.116 0.082 -0.11800000000000001 Q 0.1 -0.055 0.159 -0.024 Q 0.192 -0.006 0.229 -0.006 Q 0.296 -0.006 0.336 -0.07100000000000001 Q 0.36 -0.113 0.36 -0.20800000000000002 Q 0.36 -0.292 0.342 -0.334 Q 0.314 -0.398 0.257 -0.398 Q 0.176 -0.398 0.128 -0.328 Q 0.122 -0.319 0.115 -0.319 Q 0.10200000000000001 -0.319 0.101 -0.333 L 0.101 -0.34500000000000003 L 0.101 -0.641 Q 0.101 -0.664 0.111 -0.665 Q 0.115 -0.665 0.123 -0.662 Q 0.186 -0.634 0.256 -0.634 Q 0.328 -0.634 0.392 -0.663 Q 0.397 -0.666 0.4 -0.666 Q 0.41000000000000003 -0.666 0.41000000000000003 -0.655 Q 0.41000000000000003 -0.642 0.378 -0.613 Q 0.31 -0.551 0.217 -0.551 Q 0.17500000000000002 -0.551 0.132 -0.5640000000000001 L 0.132 -0.369 Q 0.184 -0.42 0.259 -0.42 Q 0.34700000000000003 -0.42 0.404 -0.343 Q 0.449 -0.28200000000000003 0.449 -0.201 Z"/></g><g transform="translate(16.706649686688632,8.407142857142857)"><path fill="rgb(0,0,0)" stroke="none" paint-order="stroke fill markers" d=" M 0.685 -0.712 L 0.179 0.041 Q 0.169 0.055 0.159 0.056 Q 0.14400000000000002 0.056 0.14 0.041 Q 0.139 0.038 0.139 0.036000000000000004 Q 0.139 0.029 0.148 0.016 L 0.597 -0.653 L 0.596 -0.654 Q 0.551 -0.624 0.48 -0.62 Q 0.47100000000000003 -0.619 0.463 -0.619 Q 0.386 -0.619 0.312 -0.661 Q 0.333 -0.609 0.333 -0.548 Q 0.333 -0.442 0.278 -0.382 Q 0.244 -0.34700000000000003 0.203 -0.34700000000000003 Q 0.138 -0.34700000000000003 0.094 -0.41200000000000003 Q 0.056 -0.46900000000000003 0.056 -0.549 Q 0.056 -0.652 0.11800000000000001 -0.712 Q 0.157 -0.75 0.203 -0.75 Q 0.23900000000000002 -0.75 0.275 -0.718 Q 0.356 -0.641 0.462 -0.641 Q 0.582 -0.641 0.652 -0.736 Q 0.664 -0.75 0.673 -0.75 Q 0.6890000000000001 -0.75 0.6920000000000001 -0.735 Q 0.6930000000000001 -0.732 0.6930000000000001 -0.73 Q 0.6930000000000001 -0.724 0.685 -0.712 M 0.20400000000000001 -0.369 Q 0.25 -0.369 0.281 -0.428 Q 0.308 -0.47900000000000004 0.308 -0.549 Q 0.308 -0.649 0.258 -0.7020000000000001 Q 0.233 -0.728 0.20400000000000001 -0.728 Q 0.156 -0.728 0.133 -0.662 Q 0.11800000000000001 -0.618 0.11800000000000001 -0.548 Q 0.11800000000000001 -0.395 0.186 -0.372 Q 0.195 -0.369 0.20400000000000001 -0.369 M 0.647 0.034 Q 0.6930000000000001 0.034 0.724 -0.025 Q 0.751 -0.076 0.751 -0.146 Q 0.751 -0.246 0.7010000000000001 -0.299 Q 0.676 -0.325 0.647 -0.325 Q 0.599 -0.325 0.5760000000000001 -0.259 L 0.5760000000000001 -0.258 Q 0.561 -0.214 0.561 -0.145 Q 0.561 0.008 0.629 0.031 Q 0.638 0.034 0.647 0.034 M 0.776 -0.145 Q 0.776 -0.039 0.721 0.021 Q 0.687 0.056 0.646 0.056 Q 0.581 0.056 0.537 -0.009000000000000001 Q 0.499 -0.066 0.499 -0.146 Q 0.499 -0.249 0.561 -0.309 Q 0.6 -0.34700000000000003 0.646 -0.34700000000000003 Q 0.706 -0.34700000000000003 0.745 -0.277 Q 0.776 -0.221 0.776 -0.145 Z"/></g><rect fill="rgb(0,0,0)" stroke="none" x="2.319871908910857" y="8.813651357142858" width="15.219777777777777" height="0.039999"/><g transform="translate(9.679760797799744,9.769601857142858)"><path fill="rgb(0,0,0)" stroke="none" paint-order="stroke fill markers" d=" M 0.449 -0.201 L 0.449 -0.201 Q 0.449 -0.098 0.372 -0.031 Q 0.31 0.022 0.231 0.022 Q 0.139 0.022 0.085 -0.055 Q 0.05 -0.10400000000000001 0.05 -0.161 Q 0.05 -0.20700000000000002 0.091 -0.213 Q 0.095 -0.214 0.099 -0.214 Q 0.136 -0.214 0.147 -0.181 Q 0.149 -0.17300000000000001 0.149 -0.165 Q 0.149 -0.133 0.121 -0.121 Q 0.111 -0.116 0.099 -0.116 Q 0.088 -0.116 0.082 -0.11800000000000001 Q 0.1 -0.055 0.159 -0.024 Q 0.192 -0.006 0.229 -0.006 Q 0.296 -0.006 0.336 -0.07100000000000001 Q 0.36 -0.113 0.36 -0.20800000000000002 Q 0.36 -0.292 0.342 -0.334 Q 0.314 -0.398 0.257 -0.398 Q 0.176 -0.398 0.128 -0.328 Q 0.122 -0.319 0.115 -0.319 Q 0.10200000000000001 -0.319 0.101 -0.333 L 0.101 -0.34500000000000003 L 0.101 -0.641 Q 0.101 -0.664 0.111 -0.665 Q 0.115 -0.665 0.123 -0.662 Q 0.186 -0.634 0.256 -0.634 Q 0.328 -0.634 0.392 -0.663 Q 0.397 -0.666 0.4 -0.666 Q 0.41000000000000003 -0.666 0.41000000000000003 -0.655 Q 0.41000000000000003 -0.642 0.378 -0.613 Q 0.31 -0.551 0.217 -0.551 Q 0.17500000000000002 -0.551 0.132 -0.5640000000000001 L 0.132 -0.369 Q 0.184 -0.42 0.259 -0.42 Q 0.34700000000000003 -0.42 0.404 -0.343 Q 0.449 -0.28200000000000003 0.449 -0.201 Z"/></g><g transform="translate(17.851585087662983,9.083650857142857)"><path fill="rgb(0,0,0)" stroke="none" paint-order="stroke fill markers" d=" M 0.687 -0.327 L 0.09 -0.327 Q 0.058 -0.327 0.056 -0.34700000000000003 Q 0.056 -0.367 0.089 -0.367 L 0.6880000000000001 -0.367 Q 0.72 -0.367 0.721 -0.34700000000000003 Q 0.721 -0.327 0.687 -0.327 M 0.6880000000000001 -0.133 L 0.089 -0.133 Q 0.057 -0.133 0.056 -0.153 Q 0.056 -0.17300000000000001 0.09 -0.17300000000000001 L 0.687 -0.17300000000000001 Q 0.719 -0.17300000000000001 0.721 -0.153 Q 0.721 -0.133 0.6880000000000001 -0.133 Z"/></g><g transform="translate(18.90736286544076,9.083650857142857)"><path fill="rgb(0,0,0)" stroke="none" paint-order="stroke fill markers" d=" M 0.028 -0.165 L 0.028 -0.196 L 0.335 -0.665 Q 0.343 -0.677 0.355 -0.677 Q 0.369 -0.677 0.371 -0.666 L 0.371 -0.651 L 0.371 -0.196 L 0.47100000000000003 -0.196 L 0.47100000000000003 -0.165 L 0.371 -0.165 L 0.371 -0.078 Q 0.371 -0.047 0.383 -0.04 Q 0.397 -0.031 0.447 -0.031 L 0.468 -0.031 L 0.468 0 Q 0.427 -0.003 0.332 -0.003 Q 0.23800000000000002 -0.003 0.197 0 L 0.197 -0.031 L 0.218 -0.031 Q 0.28 -0.031 0.29 -0.048 Q 0.294 -0.055 0.294 -0.078 L 0.294 -0.165 L 0.028 -0.165 M 0.3 -0.196 L 0.3 -0.5690000000000001 L 0.056 -0.196 L 0.3 -0.196 Z"/></g><g transform="translate(19.74036286544076,9.083650857142857)"><path fill="rgb(0,0,0)" stroke="none" paint-order="stroke fill markers" d=" M 0.685 -0.712 L 0.179 0.041 Q 0.169 0.055 0.159 0.056 Q 0.14400000000000002 0.056 0.14 0.041 Q 0.139 0.038 0.139 0.036000000000000004 Q 0.139 0.029 0.148 0.016 L 0.597 -0.653 L 0.596 -0.654 Q 0.551 -0.624 0.48 -0.62 Q 0.47100000000000003 -0.619 0.463 -0.619 Q 0.386 -0.619 0.312 -0.661 Q 0.333 -0.609 0.333 -0.548 Q 0.333 -0.442 0.278 -0.382 Q 0.244 -0.34700000000000003 0.203 -0.34700000000000003 Q 0.138 -0.34700000000000003 0.094 -0.41200000000000003 Q 0.056 -0.46900000000000003 0.056 -0.549 Q 0.056 -0.652 0.11800000000000001 -0.712 Q 0.157 -0.75 0.203 -0.75 Q 0.23900000000000002 -0.75 0.275 -0.718 Q 0.356 -0.641 0.462 -0.641 Q 0.582 -0.641 0.652 -0.736 Q 0.664 -0.75 0.673 -0.75 Q 0.6890000000000001 -0.75 0.6920000000000001 -0.735 Q 0.6930000000000001 -0.732 0.6930000000000001 -0.73 Q 0.6930000000000001 -0.724 0.685 -0.712 M 0.20400000000000001 -0.369 Q 0.25 -0.369 0.281 -0.428 Q 0.308 -0.47900000000000004 0.308 -0.549 Q 0.308 -0.649 0.258 -0.7020000000000001 Q 0.233 -0.728 0.20400000000000001 -0.728 Q 0.156 -0.728 0.133 -0.662 Q 0.11800000000000001 -0.618 0.11800000000000001 -0.548 Q 0.11800000000000001 -0.395 0.186 -0.372 Q 0.195 -0.369 0.20400000000000001 -0.369 M 0.647 0.034 Q 0.6930000000000001 0.034 0.724 -0.025 Q 0.751 -0.076 0.751 -0.146 Q 0.751 -0.246 0.7010000000000001 -0.299 Q 0.676 -0.325 0.647 -0.325 Q 0.599 -0.325 0.5760000000000001 -0.259 L 0.5760000000000001 -0.258 Q 0.561 -0.214 0.561 -0.145 Q 0.561 0.008 0.629 0.031 Q 0.638 0.034 0.647 0.034 M 0.776 -0.145 Q 0.776 -0.039 0.721 0.021 Q 0.687 0.056 0.646 0.056 Q 0.581 0.056 0.537 -0.009000000000000001 Q 0.499 -0.066 0.499 -0.146 Q 0.499 -0.249 0.561 -0.309 Q 0.6 -0.34700000000000003 0.646 -0.34700000000000003 Q 0.706 -0.34700000000000003 0.745 -0.277 Q 0.776 -0.221 0.776 -0.145 Z"/></g></g><path fill="rgb(255,255,255)" stroke="none" paint-order="stroke fill markers" d=" M 37.5 109 L 166.5 109 C 168.43299662440776 109 170 110.56700337559222 170 112.5 L 170 140.5 C 170 142.43299662440776 168.43299662440776 144 166.5 144 L 37.5 144 C 35.56700337559222 144 34 142.43299662440776 34 140.5 L 34 112.5 C 34 110.56700337559222 35.56700337559222 109 37.5 109 Z" fill-opacity="1"/><path fill="none" stroke="rgb(179,179,179)" paint-order="fill stroke markers" d=" M 37.5 109 L 166.5 109 C 168.43299662440776 109 170 110.56700337559222 170 112.5 L 170 140.5 C 170 142.43299662440776 168.43299662440776 144 166.5 144 L 37.5 144 C 35.56700337559222 144 34 142.43299662440776 34 140.5 L 34 112.5 C 34 110.56700337559222 35.56700337559222 109 37.5 109 Z" stroke-opacity="1" stroke-linecap="round" stroke-linejoin="round" stroke-miterlimit="10"/><text fill="rgb(0,0,0)" stroke="none" font-family="geogebra-sans-serif, sans-serif" font-size="24px" font-style="normal" font-weight="normal" text-decoration="normal" x="44" y="136" text-anchor="start" dominant-baseline="alphabetic" fill-opacity="1">Show SVG</text><path fill="rgb(255,255,255)" stroke="none" paint-order="stroke fill markers" d=" M 204.5 106 L 380.5 106 C 382.4329966244078 106 384 107.56700337559222 384 109.5 L 384 137.5 C 384 139.43299662440776 382.4329966244078 141 380.5 141 L 204.5 141 C 202.56700337559224 141 201 139.43299662440776 201 137.5 L 201 109.5 C 201 107.56700337559222 202.56700337559224 106 204.5 106 Z" fill-opacity="1"/><path fill="none" stroke="rgb(179,179,179)" paint-order="fill stroke markers" d=" M 204.5 106 L 380.5 106 C 382.4329966244078 106 384 107.56700337559222 384 109.5 L 384 137.5 C 384 139.43299662440776 382.4329966244078 141 380.5 141 L 204.5 141 C 202.56700337559224 141 201 139.43299662440776 201 137.5 L 201 109.5 C 201 107.56700337559222 202.56700337559224 106 204.5 106 Z" stroke-opacity="1" stroke-linecap="round" stroke-linejoin="round" stroke-miterlimit="10"/><text fill="rgb(0,0,0)" stroke="none" font-family="geogebra-sans-serif, sans-serif" font-size="24px" font-style="normal" font-weight="normal" text-decoration="normal" x="211" y="133" text-anchor="start" dominant-baseline="alphabetic" fill-opacity="1">Download SVG</text><path fill="rgb(255,255,255)" stroke="none" paint-order="stroke fill markers" fill-rule="evenodd" d=" M 212 30 L 722 30 C 724.2091389993232 30 726 31.790861000676827 726 34 L 726 75 C 726 77.20913899932317 724.2091389993232 79 722 79 L 212 79 C 209.7908610006768 79 208 77.20913899932317 208 75 L 208 34 C 208 31.790861000676827 209.7908610006768 30 212 30 Z" fill-opacity="1"/><path fill="none" stroke="rgb(180,179,186)" paint-order="fill stroke markers" d=" M 212 30 L 722 30 C 724.2091389993232 30 726 31.790861000676827 726 34 L 726 75 C 726 77.20913899932317 724.2091389993232 79 722 79 L 212 79 C 209.7908610006768 79 208 77.20913899932317 208 75 L 208 34 C 208 31.790861000676827 209.7908610006768 30 212 30 Z" stroke-opacity="1" stroke-linecap="round" stroke-linejoin="round" stroke-miterlimit="10"/><text fill="rgb(0,0,0)" stroke="none" font-family="geogebra-sans-serif, sans-serif" font-size="32px" font-style="normal" font-weight="normal" text-decoration="normal" x="210" y="66" text-anchor="start" dominant-baseline="alphabetic" fill-opacity="1">\frac{10\ \%-20\ \%+5\ \%+10\ \%+1</text><text fill="rgb(0,0,0)" stroke="none" font-family="geogebra-sans-serif, sans-serif" font-size="32px" font-style="normal" font-weight="normal" text-decoration="normal" x="30" y="66" text-anchor="start" dominant-baseline="alphabetic" fill-opacity="1">Enter LaTeX</text></g></g></g></g></svg>